G04 #@! TF.GenerationSoftware,KiCad,Pcbnew,8.0.2-8.0.2-0~ubuntu22.04.1*
G04 #@! TF.CreationDate,2024-05-30T19:53:11+02:00*
G04 #@! TF.ProjectId,tamarin-c,74616d61-7269-46e2-9d63-2e6b69636164,rev?*
G04 #@! TF.SameCoordinates,Original*
G04 #@! TF.FileFunction,Soldermask,Top*
G04 #@! TF.FilePolarity,Negative*
%FSLAX46Y46*%
G04 Gerber Fmt 4.6, Leading zero omitted, Abs format (unit mm)*
G04 Created by KiCad (PCBNEW 8.0.2-8.0.2-0~ubuntu22.04.1) date 2024-05-30 19:53:11*
%MOMM*%
%LPD*%
G01*
G04 APERTURE LIST*
G04 Aperture macros list*
%AMRoundRect*
0 Rectangle with rounded corners*
0 $1 Rounding radius*
0 $2 $3 $4 $5 $6 $7 $8 $9 X,Y pos of 4 corners*
0 Add a 4 corners polygon primitive as box body*
4,1,4,$2,$3,$4,$5,$6,$7,$8,$9,$2,$3,0*
0 Add four circle primitives for the rounded corners*
1,1,$1+$1,$2,$3*
1,1,$1+$1,$4,$5*
1,1,$1+$1,$6,$7*
1,1,$1+$1,$8,$9*
0 Add four rect primitives between the rounded corners*
20,1,$1+$1,$2,$3,$4,$5,0*
20,1,$1+$1,$4,$5,$6,$7,0*
20,1,$1+$1,$6,$7,$8,$9,0*
20,1,$1+$1,$8,$9,$2,$3,0*%
G04 Aperture macros list end*
%ADD10C,0.650000*%
%ADD11R,0.600000X1.450000*%
%ADD12R,0.300000X1.450000*%
%ADD13O,1.000000X2.100000*%
%ADD14O,1.000000X1.600000*%
%ADD15R,1.700000X1.700000*%
%ADD16O,1.700000X1.700000*%
%ADD17RoundRect,0.200000X-0.275000X0.200000X-0.275000X-0.200000X0.275000X-0.200000X0.275000X0.200000X0*%
%ADD18RoundRect,0.150000X-0.512500X-0.150000X0.512500X-0.150000X0.512500X0.150000X-0.512500X0.150000X0*%
%ADD19RoundRect,0.225000X0.225000X0.250000X-0.225000X0.250000X-0.225000X-0.250000X0.225000X-0.250000X0*%
%ADD20RoundRect,0.225000X-0.250000X0.225000X-0.250000X-0.225000X0.250000X-0.225000X0.250000X0.225000X0*%
%ADD21RoundRect,0.200000X0.275000X-0.200000X0.275000X0.200000X-0.275000X0.200000X-0.275000X-0.200000X0*%
%ADD22RoundRect,0.062500X0.275000X0.062500X-0.275000X0.062500X-0.275000X-0.062500X0.275000X-0.062500X0*%
%ADD23RoundRect,0.062500X0.062500X0.275000X-0.062500X0.275000X-0.062500X-0.275000X0.062500X-0.275000X0*%
%ADD24R,1.450000X1.450000*%
%ADD25RoundRect,0.150000X-0.150000X0.512500X-0.150000X-0.512500X0.150000X-0.512500X0.150000X0.512500X0*%
G04 APERTURE END LIST*
D10*
X148940000Y-56975000D03*
X143160000Y-56975000D03*
D11*
X149300000Y-58420000D03*
X148500000Y-58420000D03*
D12*
X147300000Y-58420000D03*
X146300000Y-58420000D03*
X145800000Y-58420000D03*
X144800000Y-58420000D03*
D11*
X143600000Y-58420000D03*
X142800000Y-58420000D03*
X142800000Y-58420000D03*
X143600000Y-58420000D03*
D12*
X144300000Y-58420000D03*
X145300000Y-58420000D03*
X146800000Y-58420000D03*
X147800000Y-58420000D03*
D11*
X148500000Y-58420000D03*
X149300000Y-58420000D03*
D13*
X150370000Y-57505000D03*
D14*
X150370000Y-53325000D03*
D13*
X141730000Y-57505000D03*
D14*
X141730000Y-53325000D03*
D15*
X143510000Y-66040000D03*
D16*
X143510000Y-68580000D03*
X143510000Y-71120000D03*
X143510000Y-73660000D03*
X143510000Y-76200000D03*
X143510000Y-78740000D03*
X143510000Y-81280000D03*
X143510000Y-83820000D03*
X143510000Y-86360000D03*
D15*
X140970000Y-78730000D03*
D16*
X140970000Y-76190000D03*
D17*
X124460000Y-96175600D03*
X124460000Y-97825600D03*
D18*
X130694000Y-81879400D03*
X130694000Y-82829400D03*
X130694000Y-83779400D03*
X132969000Y-83779400D03*
X132969000Y-82829400D03*
X132969000Y-81879400D03*
D19*
X145314000Y-88900000D03*
X143764000Y-88900000D03*
D20*
X150876000Y-87630000D03*
X150876000Y-89180000D03*
D17*
X149885400Y-64630800D03*
X149885400Y-66280800D03*
D21*
X148158200Y-66306200D03*
X148158200Y-64656200D03*
D17*
X122910600Y-96175600D03*
X122910600Y-97825600D03*
D22*
X149162700Y-88097100D03*
X149162700Y-87597100D03*
X149162700Y-87097100D03*
D23*
X148650200Y-86334600D03*
X148150200Y-86334600D03*
X147650200Y-86334600D03*
X147150200Y-86334600D03*
D22*
X146637700Y-87097100D03*
X146637700Y-87597100D03*
X146637700Y-88097100D03*
D23*
X147150200Y-88859600D03*
X147650200Y-88859600D03*
X148150200Y-88859600D03*
X148650200Y-88859600D03*
D24*
X147900200Y-87597100D03*
D18*
X130683000Y-72771000D03*
X130683000Y-73721000D03*
X130683000Y-74671000D03*
X132958000Y-74671000D03*
X132958000Y-73721000D03*
X132958000Y-72771000D03*
X130683000Y-69281000D03*
X130683000Y-70231000D03*
X130683000Y-71181000D03*
X132958000Y-71181000D03*
X132958000Y-70231000D03*
X132958000Y-69281000D03*
D21*
X120142000Y-63563000D03*
X120142000Y-61913000D03*
D10*
X143160000Y-96460000D03*
X148940000Y-96460000D03*
D11*
X142800000Y-95015000D03*
X143600000Y-95015000D03*
D12*
X144800000Y-95015000D03*
X145800000Y-95015000D03*
X146300000Y-95015000D03*
X147300000Y-95015000D03*
D11*
X148500000Y-95015000D03*
X149300000Y-95015000D03*
X149300000Y-95015000D03*
X148500000Y-95015000D03*
D12*
X147800000Y-95015000D03*
X146800000Y-95015000D03*
X145300000Y-95015000D03*
X144300000Y-95015000D03*
D11*
X143600000Y-95015000D03*
X142800000Y-95015000D03*
D13*
X141730000Y-95930000D03*
D14*
X141730000Y-100110000D03*
D13*
X150370000Y-95930000D03*
D14*
X150370000Y-100110000D03*
D19*
X149873000Y-84582000D03*
X148323000Y-84582000D03*
X149873000Y-83058000D03*
X148323000Y-83058000D03*
D18*
X130688500Y-78399600D03*
X130688500Y-79349600D03*
X130688500Y-80299600D03*
X132963500Y-80299600D03*
X132963500Y-79349600D03*
X132963500Y-78399600D03*
D17*
X125984000Y-96177600D03*
X125984000Y-97827600D03*
D25*
X150505200Y-78110500D03*
X149555200Y-78110500D03*
X148605200Y-78110500D03*
X148605200Y-80385500D03*
X150505200Y-80385500D03*
D21*
X120142000Y-66865000D03*
X120142000Y-65215000D03*
D16*
X135890000Y-52070000D03*
X135890000Y-54610000D03*
D15*
X135890000Y-57150000D03*
D16*
X135890000Y-59690000D03*
X135890000Y-62230000D03*
X135890000Y-64770000D03*
X135890000Y-67310000D03*
D15*
X135890000Y-69850000D03*
D16*
X135890000Y-72390000D03*
X135890000Y-74930000D03*
X135890000Y-77470000D03*
X135890000Y-80010000D03*
D15*
X135890000Y-82550000D03*
D16*
X135890000Y-85090000D03*
X135890000Y-87630000D03*
X135890000Y-90170000D03*
X135890000Y-92710000D03*
D15*
X135890000Y-95250000D03*
D16*
X135890000Y-97790000D03*
X135890000Y-100330000D03*
X118110000Y-100330000D03*
X118110000Y-97790000D03*
D15*
X118110000Y-95250000D03*
D16*
X118110000Y-92710000D03*
X118110000Y-90170000D03*
X118110000Y-87630000D03*
X118110000Y-85090000D03*
D15*
X118110000Y-82550000D03*
D16*
X118110000Y-80010000D03*
X118110000Y-77470000D03*
X118110000Y-74930000D03*
X118110000Y-72390000D03*
D15*
X118110000Y-69850000D03*
D16*
X118110000Y-67310000D03*
X118110000Y-64770000D03*
X118110000Y-62230000D03*
X118110000Y-59690000D03*
D15*
X118110000Y-57150000D03*
D16*
X118110000Y-54610000D03*
X118110000Y-52070000D03*
X129540000Y-100100000D03*
D15*
X127000000Y-100100000D03*
D16*
X124460000Y-100100000D03*
M02*
