%TF.GenerationSoftware,KiCad,Pcbnew,8.0.2-8.0.2-0~ubuntu22.04.1*%
%TF.CreationDate,2024-05-30T19:54:08+02:00*%
%TF.ProjectId,tamarin-c,74616d61-7269-46e2-9d63-2e6b69636164,rev?*%
%TF.SameCoordinates,Original*%
%TF.FileFunction,Drillmap*%
%TF.FilePolarity,Positive*%
%FSLAX45Y45*%
G04 Gerber Fmt 4.5, Leading zero omitted, Abs format (unit mm)*
G04 Created by KiCad (PCBNEW 8.0.2-8.0.2-0~ubuntu22.04.1) date 2024-05-30 19:54:08*
%MOMM*%
%LPD*%
G01*
G04 APERTURE LIST*
%ADD10C,0.100000*%
%ADD11C,0.200000*%
%ADD12C,0.102000*%
G04 APERTURE END LIST*
D10*
X15138400Y-5054600D02*
G75*
G02*
X15265400Y-5181600I0J-127000D01*
G01*
X15265400Y-5181600D02*
X15265400Y-10160000D01*
X13055600Y-10287000D02*
X11607800Y-10287000D01*
X15138400Y-5054600D02*
X11607800Y-5054600D01*
X11607800Y-10287000D02*
G75*
G02*
X11480800Y-10160000I0J127000D01*
G01*
X15265400Y-10160000D02*
G75*
G02*
X15138400Y-10287000I-127000J0D01*
G01*
X11480800Y-5181600D02*
X11480800Y-10160000D01*
X13055600Y-10287000D02*
X15138400Y-10287000D01*
X11480800Y-5181600D02*
G75*
G02*
X11607800Y-5054600I127000J0D01*
G01*
D11*
D10*
X11994200Y-5542600D02*
X12034200Y-5582600D01*
X12034200Y-5542600D02*
X11994200Y-5582600D01*
X12045000Y-9251000D02*
X12085000Y-9291000D01*
X12085000Y-9251000D02*
X12045000Y-9291000D01*
X12197400Y-10038400D02*
X12237400Y-10078400D01*
X12237400Y-10038400D02*
X12197400Y-10078400D01*
X12210100Y-5148900D02*
X12250100Y-5188900D01*
X12250100Y-5148900D02*
X12210100Y-5188900D01*
X12283760Y-9872500D02*
X12323760Y-9912500D01*
X12323760Y-9872500D02*
X12283760Y-9912500D01*
X12680000Y-6914200D02*
X12720000Y-6954200D01*
X12720000Y-6914200D02*
X12680000Y-6954200D01*
X12680000Y-7257100D02*
X12720000Y-7297100D01*
X12720000Y-7257100D02*
X12680000Y-7297100D01*
X12680000Y-7815900D02*
X12720000Y-7855900D01*
X12720000Y-7815900D02*
X12680000Y-7855900D01*
X12680000Y-8158800D02*
X12720000Y-8198800D01*
X12720000Y-8158800D02*
X12680000Y-8198800D01*
X12705400Y-9759000D02*
X12745400Y-9799000D01*
X12745400Y-9759000D02*
X12705400Y-9799000D01*
X12832400Y-8768400D02*
X12872400Y-8808400D01*
X12872400Y-8768400D02*
X12832400Y-8808400D01*
X12845100Y-7676200D02*
X12885100Y-7716200D01*
X12885100Y-7676200D02*
X12845100Y-7716200D01*
X12908600Y-7930200D02*
X12948600Y-7970200D01*
X12948600Y-7930200D02*
X12908600Y-7970200D01*
X12908600Y-8260400D02*
X12948600Y-8300400D01*
X12948600Y-8260400D02*
X12908600Y-8300400D01*
X12934000Y-9479600D02*
X12974000Y-9519600D01*
X12974000Y-9479600D02*
X12934000Y-9519600D01*
X13035600Y-6723700D02*
X13075600Y-6763700D01*
X13075600Y-6723700D02*
X13035600Y-6763700D01*
X13048300Y-7098100D02*
X13088300Y-7138100D01*
X13088300Y-7098100D02*
X13048300Y-7138100D01*
X13048300Y-7536500D02*
X13088300Y-7576500D01*
X13088300Y-7536500D02*
X13048300Y-7576500D01*
X13073270Y-7663930D02*
X13113270Y-7703930D01*
X13113270Y-7663930D02*
X13073270Y-7703930D01*
X13264200Y-9759000D02*
X13304200Y-9799000D01*
X13304200Y-9759000D02*
X13264200Y-9799000D01*
X13264200Y-10063800D02*
X13304200Y-10103800D01*
X13304200Y-10063800D02*
X13264200Y-10103800D01*
X13365800Y-8260400D02*
X13405800Y-8300400D01*
X13405800Y-8260400D02*
X13365800Y-8300400D01*
X13403900Y-7879400D02*
X13443900Y-7919400D01*
X13443900Y-7879400D02*
X13403900Y-7919400D01*
X13899200Y-7409500D02*
X13939200Y-7449500D01*
X13939200Y-7409500D02*
X13899200Y-7449500D01*
X13899200Y-8450900D02*
X13939200Y-8490900D01*
X13939200Y-8450900D02*
X13899200Y-8490900D01*
X14026200Y-8260400D02*
X14066200Y-8300400D01*
X14066200Y-8260400D02*
X14026200Y-8300400D01*
X14102400Y-7358700D02*
X14142400Y-7398700D01*
X14142400Y-7358700D02*
X14102400Y-7398700D01*
X14102400Y-8616000D02*
X14142400Y-8656000D01*
X14142400Y-8616000D02*
X14102400Y-8656000D01*
X14127800Y-7206300D02*
X14167800Y-7246300D01*
X14167800Y-7206300D02*
X14127800Y-7246300D01*
X14127800Y-9174800D02*
X14167800Y-9214800D01*
X14167800Y-9174800D02*
X14127800Y-9214800D01*
X14163360Y-9362760D02*
X14203360Y-9402760D01*
X14203360Y-9362760D02*
X14163360Y-9402760D01*
X14178600Y-8844600D02*
X14218600Y-8884600D01*
X14218600Y-8844600D02*
X14178600Y-8884600D01*
X14331000Y-9886000D02*
X14371000Y-9926000D01*
X14371000Y-9886000D02*
X14331000Y-9926000D01*
X14458000Y-6736400D02*
X14498000Y-6776400D01*
X14498000Y-6736400D02*
X14458000Y-6776400D01*
X14458000Y-6965000D02*
X14498000Y-7005000D01*
X14498000Y-6965000D02*
X14458000Y-7005000D01*
X14458000Y-10089200D02*
X14498000Y-10129200D01*
X14498000Y-10089200D02*
X14458000Y-10129200D01*
X14482450Y-8743000D02*
X14522450Y-8783000D01*
X14522450Y-8743000D02*
X14482450Y-8783000D01*
X14532500Y-5667781D02*
X14572500Y-5707781D01*
X14572500Y-5667781D02*
X14532500Y-5707781D01*
X14532500Y-9685265D02*
X14572500Y-9725265D01*
X14572500Y-9685265D02*
X14532500Y-9725265D01*
X14637500Y-5667781D02*
X14677500Y-5707781D01*
X14677500Y-5667781D02*
X14637500Y-5707781D01*
X14637500Y-9685265D02*
X14677500Y-9725265D01*
X14677500Y-9685265D02*
X14637500Y-9725265D01*
X14639550Y-7854000D02*
X14679550Y-7894000D01*
X14679550Y-7854000D02*
X14639550Y-7894000D01*
X14686600Y-8110540D02*
X14726600Y-8150540D01*
X14726600Y-8110540D02*
X14686600Y-8150540D01*
X14697442Y-9215778D02*
X14737442Y-9255778D01*
X14737442Y-9215778D02*
X14697442Y-9255778D01*
X14712000Y-6838000D02*
X14752000Y-6878000D01*
X14752000Y-6838000D02*
X14712000Y-6878000D01*
X14712000Y-7092000D02*
X14752000Y-7132000D01*
X14752000Y-7092000D02*
X14712000Y-7132000D01*
X14712000Y-7346000D02*
X14752000Y-7386000D01*
X14752000Y-7346000D02*
X14712000Y-7386000D01*
X14737400Y-5441000D02*
X14777400Y-5481000D01*
X14777400Y-5441000D02*
X14737400Y-5481000D01*
X14782450Y-9047800D02*
X14822450Y-9087800D01*
X14822450Y-9047800D02*
X14782450Y-9087800D01*
X14798690Y-7589510D02*
X14838690Y-7629510D01*
X14838690Y-7589510D02*
X14798690Y-7629510D01*
X14830000Y-9359000D02*
X14870000Y-9399000D01*
X14870000Y-9359000D02*
X14830000Y-9399000D01*
X14839000Y-9174800D02*
X14879000Y-9214800D01*
X14879000Y-9174800D02*
X14839000Y-9214800D01*
X14915200Y-7015800D02*
X14955200Y-7055800D01*
X14955200Y-7015800D02*
X14915200Y-7055800D01*
X14915200Y-7346000D02*
X14955200Y-7386000D01*
X14955200Y-7346000D02*
X14915200Y-7386000D01*
X14915200Y-7511100D02*
X14955200Y-7551100D01*
X14955200Y-7511100D02*
X14915200Y-7551100D01*
X14940600Y-8920800D02*
X14980600Y-8960800D01*
X14980600Y-8920800D02*
X14940600Y-8960800D01*
X14966000Y-8616000D02*
X15006000Y-8656000D01*
X15006000Y-8616000D02*
X14966000Y-8656000D01*
X14991522Y-8178368D02*
X15031522Y-8218368D01*
X15031522Y-8178368D02*
X14991522Y-8218368D01*
X15118400Y-6761800D02*
X15158400Y-6801800D01*
X15158400Y-6761800D02*
X15118400Y-6801800D01*
X15118400Y-7015800D02*
X15158400Y-7055800D01*
X15158400Y-7015800D02*
X15118400Y-7055800D01*
X15169200Y-5974400D02*
X15209200Y-6014400D01*
X15209200Y-5974400D02*
X15169200Y-6014400D01*
X14203000Y-5332500D02*
G75*
G02*
X14143000Y-5332500I-30000J0D01*
G01*
X14143000Y-5332500D02*
G75*
G02*
X14203000Y-5332500I30000J0D01*
G01*
X14203000Y-5362500D02*
X14203000Y-5302500D01*
X14143000Y-5302500D02*
G75*
G02*
X14203000Y-5302500I30000J0D01*
G01*
X14143000Y-5302500D02*
X14143000Y-5362500D01*
X14143000Y-5362500D02*
G75*
G03*
X14203000Y-5362500I30000J0D01*
G01*
X14203000Y-5750500D02*
G75*
G02*
X14143000Y-5750500I-30000J0D01*
G01*
X14143000Y-5750500D02*
G75*
G02*
X14203000Y-5750500I30000J0D01*
G01*
X14203000Y-5805500D02*
X14203000Y-5695500D01*
X14143000Y-5695500D02*
G75*
G02*
X14203000Y-5695500I30000J0D01*
G01*
X14143000Y-5695500D02*
X14143000Y-5805500D01*
X14143000Y-5805500D02*
G75*
G03*
X14203000Y-5805500I30000J0D01*
G01*
X14203000Y-9593000D02*
G75*
G02*
X14143000Y-9593000I-30000J0D01*
G01*
X14143000Y-9593000D02*
G75*
G02*
X14203000Y-9593000I30000J0D01*
G01*
X14143000Y-9538000D02*
X14143000Y-9648000D01*
X14203000Y-9648000D02*
G75*
G02*
X14143000Y-9648000I-30000J0D01*
G01*
X14203000Y-9648000D02*
X14203000Y-9538000D01*
X14203000Y-9538000D02*
G75*
G03*
X14143000Y-9538000I-30000J0D01*
G01*
X14203000Y-10011000D02*
G75*
G02*
X14143000Y-10011000I-30000J0D01*
G01*
X14143000Y-10011000D02*
G75*
G02*
X14203000Y-10011000I30000J0D01*
G01*
X14143000Y-9981000D02*
X14143000Y-10041000D01*
X14203000Y-10041000D02*
G75*
G02*
X14143000Y-10041000I-30000J0D01*
G01*
X14203000Y-10041000D02*
X14203000Y-9981000D01*
X14203000Y-9981000D02*
G75*
G03*
X14143000Y-9981000I-30000J0D01*
G01*
X15067000Y-5332500D02*
G75*
G02*
X15007000Y-5332500I-30000J0D01*
G01*
X15007000Y-5332500D02*
G75*
G02*
X15067000Y-5332500I30000J0D01*
G01*
X15067000Y-5362500D02*
X15067000Y-5302500D01*
X15007000Y-5302500D02*
G75*
G02*
X15067000Y-5302500I30000J0D01*
G01*
X15007000Y-5302500D02*
X15007000Y-5362500D01*
X15007000Y-5362500D02*
G75*
G03*
X15067000Y-5362500I30000J0D01*
G01*
X15067000Y-5750500D02*
G75*
G02*
X15007000Y-5750500I-30000J0D01*
G01*
X15007000Y-5750500D02*
G75*
G02*
X15067000Y-5750500I30000J0D01*
G01*
X15067000Y-5805500D02*
X15067000Y-5695500D01*
X15007000Y-5695500D02*
G75*
G02*
X15067000Y-5695500I30000J0D01*
G01*
X15007000Y-5695500D02*
X15007000Y-5805500D01*
X15007000Y-5805500D02*
G75*
G03*
X15067000Y-5805500I30000J0D01*
G01*
X15067000Y-9593000D02*
G75*
G02*
X15007000Y-9593000I-30000J0D01*
G01*
X15007000Y-9593000D02*
G75*
G02*
X15067000Y-9593000I30000J0D01*
G01*
X15007000Y-9538000D02*
X15007000Y-9648000D01*
X15067000Y-9648000D02*
G75*
G02*
X15007000Y-9648000I-30000J0D01*
G01*
X15067000Y-9648000D02*
X15067000Y-9538000D01*
X15067000Y-9538000D02*
G75*
G03*
X15007000Y-9538000I-30000J0D01*
G01*
X15067000Y-10011000D02*
G75*
G02*
X15007000Y-10011000I-30000J0D01*
G01*
X15007000Y-10011000D02*
G75*
G02*
X15067000Y-10011000I30000J0D01*
G01*
X15007000Y-9981000D02*
X15007000Y-10041000D01*
X15067000Y-10041000D02*
G75*
G02*
X15007000Y-10041000I-30000J0D01*
G01*
X15067000Y-10041000D02*
X15067000Y-9981000D01*
X15067000Y-9981000D02*
G75*
G03*
X15007000Y-9981000I-30000J0D01*
G01*
X14097000Y-7569000D02*
X14097000Y-7669000D01*
X14047000Y-7619000D02*
X14147000Y-7619000D01*
X14097000Y-7823000D02*
X14097000Y-7923000D01*
X14047000Y-7873000D02*
X14147000Y-7873000D01*
X14351000Y-6554000D02*
X14351000Y-6654000D01*
X14301000Y-6604000D02*
X14401000Y-6604000D01*
X14351000Y-6808000D02*
X14351000Y-6908000D01*
X14301000Y-6858000D02*
X14401000Y-6858000D01*
X14351000Y-7062000D02*
X14351000Y-7162000D01*
X14301000Y-7112000D02*
X14401000Y-7112000D01*
X14351000Y-7316000D02*
X14351000Y-7416000D01*
X14301000Y-7366000D02*
X14401000Y-7366000D01*
X14351000Y-7570000D02*
X14351000Y-7670000D01*
X14301000Y-7620000D02*
X14401000Y-7620000D01*
X14351000Y-7824000D02*
X14351000Y-7924000D01*
X14301000Y-7874000D02*
X14401000Y-7874000D01*
X14351000Y-8078000D02*
X14351000Y-8178000D01*
X14301000Y-8128000D02*
X14401000Y-8128000D01*
X14351000Y-8332000D02*
X14351000Y-8432000D01*
X14301000Y-8382000D02*
X14401000Y-8382000D01*
X14351000Y-8586000D02*
X14351000Y-8686000D01*
X14301000Y-8636000D02*
X14401000Y-8636000D01*
D12*
X11847063Y-5243063D02*
X11847063Y-5170937D01*
X11774937Y-5170937D01*
X11774937Y-5243063D01*
X11847063Y-5243063D01*
X11847063Y-5497063D02*
X11847063Y-5424937D01*
X11774937Y-5424937D01*
X11774937Y-5497063D01*
X11847063Y-5497063D01*
X11847063Y-5751063D02*
X11847063Y-5678937D01*
X11774937Y-5678937D01*
X11774937Y-5751063D01*
X11847063Y-5751063D01*
X11847063Y-6005063D02*
X11847063Y-5932937D01*
X11774937Y-5932937D01*
X11774937Y-6005063D01*
X11847063Y-6005063D01*
X11847063Y-6259063D02*
X11847063Y-6186937D01*
X11774937Y-6186937D01*
X11774937Y-6259063D01*
X11847063Y-6259063D01*
X11847063Y-6513063D02*
X11847063Y-6440937D01*
X11774937Y-6440937D01*
X11774937Y-6513063D01*
X11847063Y-6513063D01*
X11847063Y-6767063D02*
X11847063Y-6694937D01*
X11774937Y-6694937D01*
X11774937Y-6767063D01*
X11847063Y-6767063D01*
X11847063Y-7021063D02*
X11847063Y-6948937D01*
X11774937Y-6948937D01*
X11774937Y-7021063D01*
X11847063Y-7021063D01*
X11847063Y-7275063D02*
X11847063Y-7202937D01*
X11774937Y-7202937D01*
X11774937Y-7275063D01*
X11847063Y-7275063D01*
X11847063Y-7529063D02*
X11847063Y-7456937D01*
X11774937Y-7456937D01*
X11774937Y-7529063D01*
X11847063Y-7529063D01*
X11847063Y-7783063D02*
X11847063Y-7710937D01*
X11774937Y-7710937D01*
X11774937Y-7783063D01*
X11847063Y-7783063D01*
X11847063Y-8037063D02*
X11847063Y-7964937D01*
X11774937Y-7964937D01*
X11774937Y-8037063D01*
X11847063Y-8037063D01*
X11847063Y-8291063D02*
X11847063Y-8218937D01*
X11774937Y-8218937D01*
X11774937Y-8291063D01*
X11847063Y-8291063D01*
X11847063Y-8545063D02*
X11847063Y-8472937D01*
X11774937Y-8472937D01*
X11774937Y-8545063D01*
X11847063Y-8545063D01*
X11847063Y-8799063D02*
X11847063Y-8726937D01*
X11774937Y-8726937D01*
X11774937Y-8799063D01*
X11847063Y-8799063D01*
X11847063Y-9053063D02*
X11847063Y-8980937D01*
X11774937Y-8980937D01*
X11774937Y-9053063D01*
X11847063Y-9053063D01*
X11847063Y-9307063D02*
X11847063Y-9234937D01*
X11774937Y-9234937D01*
X11774937Y-9307063D01*
X11847063Y-9307063D01*
X11847063Y-9561063D02*
X11847063Y-9488937D01*
X11774937Y-9488937D01*
X11774937Y-9561063D01*
X11847063Y-9561063D01*
X11847063Y-9815063D02*
X11847063Y-9742937D01*
X11774937Y-9742937D01*
X11774937Y-9815063D01*
X11847063Y-9815063D01*
X11847063Y-10069063D02*
X11847063Y-9996937D01*
X11774937Y-9996937D01*
X11774937Y-10069063D01*
X11847063Y-10069063D01*
X12482063Y-10046063D02*
X12482063Y-9973937D01*
X12409937Y-9973937D01*
X12409937Y-10046063D01*
X12482063Y-10046063D01*
X12736063Y-10046063D02*
X12736063Y-9973937D01*
X12663937Y-9973937D01*
X12663937Y-10046063D01*
X12736063Y-10046063D01*
X12990063Y-10046063D02*
X12990063Y-9973937D01*
X12917937Y-9973937D01*
X12917937Y-10046063D01*
X12990063Y-10046063D01*
X13625063Y-5243063D02*
X13625063Y-5170937D01*
X13552937Y-5170937D01*
X13552937Y-5243063D01*
X13625063Y-5243063D01*
X13625063Y-5497063D02*
X13625063Y-5424937D01*
X13552937Y-5424937D01*
X13552937Y-5497063D01*
X13625063Y-5497063D01*
X13625063Y-5751063D02*
X13625063Y-5678937D01*
X13552937Y-5678937D01*
X13552937Y-5751063D01*
X13625063Y-5751063D01*
X13625063Y-6005063D02*
X13625063Y-5932937D01*
X13552937Y-5932937D01*
X13552937Y-6005063D01*
X13625063Y-6005063D01*
X13625063Y-6259063D02*
X13625063Y-6186937D01*
X13552937Y-6186937D01*
X13552937Y-6259063D01*
X13625063Y-6259063D01*
X13625063Y-6513063D02*
X13625063Y-6440937D01*
X13552937Y-6440937D01*
X13552937Y-6513063D01*
X13625063Y-6513063D01*
X13625063Y-6767063D02*
X13625063Y-6694937D01*
X13552937Y-6694937D01*
X13552937Y-6767063D01*
X13625063Y-6767063D01*
X13625063Y-7021063D02*
X13625063Y-6948937D01*
X13552937Y-6948937D01*
X13552937Y-7021063D01*
X13625063Y-7021063D01*
X13625063Y-7275063D02*
X13625063Y-7202937D01*
X13552937Y-7202937D01*
X13552937Y-7275063D01*
X13625063Y-7275063D01*
X13625063Y-7529063D02*
X13625063Y-7456937D01*
X13552937Y-7456937D01*
X13552937Y-7529063D01*
X13625063Y-7529063D01*
X13625063Y-7783063D02*
X13625063Y-7710937D01*
X13552937Y-7710937D01*
X13552937Y-7783063D01*
X13625063Y-7783063D01*
X13625063Y-8037063D02*
X13625063Y-7964937D01*
X13552937Y-7964937D01*
X13552937Y-8037063D01*
X13625063Y-8037063D01*
X13625063Y-8291063D02*
X13625063Y-8218937D01*
X13552937Y-8218937D01*
X13552937Y-8291063D01*
X13625063Y-8291063D01*
X13625063Y-8545063D02*
X13625063Y-8472937D01*
X13552937Y-8472937D01*
X13552937Y-8545063D01*
X13625063Y-8545063D01*
X13625063Y-8799063D02*
X13625063Y-8726937D01*
X13552937Y-8726937D01*
X13552937Y-8799063D01*
X13625063Y-8799063D01*
X13625063Y-9053063D02*
X13625063Y-8980937D01*
X13552937Y-8980937D01*
X13552937Y-9053063D01*
X13625063Y-9053063D01*
X13625063Y-9307063D02*
X13625063Y-9234937D01*
X13552937Y-9234937D01*
X13552937Y-9307063D01*
X13625063Y-9307063D01*
X13625063Y-9561063D02*
X13625063Y-9488937D01*
X13552937Y-9488937D01*
X13552937Y-9561063D01*
X13625063Y-9561063D01*
X13625063Y-9815063D02*
X13625063Y-9742937D01*
X13552937Y-9742937D01*
X13552937Y-9815063D01*
X13625063Y-9815063D01*
X13625063Y-10069063D02*
X13625063Y-9996937D01*
X13552937Y-9996937D01*
X13552937Y-10069063D01*
X13625063Y-10069063D01*
D11*
X11736577Y-10603484D02*
X11736577Y-10403484D01*
X11736577Y-10403484D02*
X11784196Y-10403484D01*
X11784196Y-10403484D02*
X11812767Y-10413008D01*
X11812767Y-10413008D02*
X11831815Y-10432055D01*
X11831815Y-10432055D02*
X11841339Y-10451103D01*
X11841339Y-10451103D02*
X11850862Y-10489198D01*
X11850862Y-10489198D02*
X11850862Y-10517770D01*
X11850862Y-10517770D02*
X11841339Y-10555865D01*
X11841339Y-10555865D02*
X11831815Y-10574912D01*
X11831815Y-10574912D02*
X11812767Y-10593960D01*
X11812767Y-10593960D02*
X11784196Y-10603484D01*
X11784196Y-10603484D02*
X11736577Y-10603484D01*
X11936577Y-10603484D02*
X11936577Y-10470150D01*
X11936577Y-10508246D02*
X11946101Y-10489198D01*
X11946101Y-10489198D02*
X11955624Y-10479674D01*
X11955624Y-10479674D02*
X11974672Y-10470150D01*
X11974672Y-10470150D02*
X11993720Y-10470150D01*
X12060386Y-10603484D02*
X12060386Y-10470150D01*
X12060386Y-10403484D02*
X12050862Y-10413008D01*
X12050862Y-10413008D02*
X12060386Y-10422531D01*
X12060386Y-10422531D02*
X12069910Y-10413008D01*
X12069910Y-10413008D02*
X12060386Y-10403484D01*
X12060386Y-10403484D02*
X12060386Y-10422531D01*
X12184196Y-10603484D02*
X12165148Y-10593960D01*
X12165148Y-10593960D02*
X12155624Y-10574912D01*
X12155624Y-10574912D02*
X12155624Y-10403484D01*
X12288958Y-10603484D02*
X12269910Y-10593960D01*
X12269910Y-10593960D02*
X12260386Y-10574912D01*
X12260386Y-10574912D02*
X12260386Y-10403484D01*
X12517529Y-10603484D02*
X12517529Y-10403484D01*
X12517529Y-10403484D02*
X12584196Y-10546341D01*
X12584196Y-10546341D02*
X12650862Y-10403484D01*
X12650862Y-10403484D02*
X12650862Y-10603484D01*
X12831815Y-10603484D02*
X12831815Y-10498722D01*
X12831815Y-10498722D02*
X12822291Y-10479674D01*
X12822291Y-10479674D02*
X12803243Y-10470150D01*
X12803243Y-10470150D02*
X12765148Y-10470150D01*
X12765148Y-10470150D02*
X12746101Y-10479674D01*
X12831815Y-10593960D02*
X12812767Y-10603484D01*
X12812767Y-10603484D02*
X12765148Y-10603484D01*
X12765148Y-10603484D02*
X12746101Y-10593960D01*
X12746101Y-10593960D02*
X12736577Y-10574912D01*
X12736577Y-10574912D02*
X12736577Y-10555865D01*
X12736577Y-10555865D02*
X12746101Y-10536817D01*
X12746101Y-10536817D02*
X12765148Y-10527293D01*
X12765148Y-10527293D02*
X12812767Y-10527293D01*
X12812767Y-10527293D02*
X12831815Y-10517770D01*
X12927053Y-10470150D02*
X12927053Y-10670150D01*
X12927053Y-10479674D02*
X12946101Y-10470150D01*
X12946101Y-10470150D02*
X12984196Y-10470150D01*
X12984196Y-10470150D02*
X13003243Y-10479674D01*
X13003243Y-10479674D02*
X13012767Y-10489198D01*
X13012767Y-10489198D02*
X13022291Y-10508246D01*
X13022291Y-10508246D02*
X13022291Y-10565389D01*
X13022291Y-10565389D02*
X13012767Y-10584436D01*
X13012767Y-10584436D02*
X13003243Y-10593960D01*
X13003243Y-10593960D02*
X12984196Y-10603484D01*
X12984196Y-10603484D02*
X12946101Y-10603484D01*
X12946101Y-10603484D02*
X12927053Y-10593960D01*
X13108005Y-10584436D02*
X13117529Y-10593960D01*
X13117529Y-10593960D02*
X13108005Y-10603484D01*
X13108005Y-10603484D02*
X13098482Y-10593960D01*
X13098482Y-10593960D02*
X13108005Y-10584436D01*
X13108005Y-10584436D02*
X13108005Y-10603484D01*
X13108005Y-10479674D02*
X13117529Y-10489198D01*
X13117529Y-10489198D02*
X13108005Y-10498722D01*
X13108005Y-10498722D02*
X13098482Y-10489198D01*
X13098482Y-10489198D02*
X13108005Y-10479674D01*
X13108005Y-10479674D02*
X13108005Y-10498722D01*
D10*
X11435800Y-10912000D02*
X11475800Y-10952000D01*
X11475800Y-10912000D02*
X11435800Y-10952000D01*
D11*
X11774672Y-10823484D02*
X11793720Y-10823484D01*
X11793720Y-10823484D02*
X11812767Y-10833008D01*
X11812767Y-10833008D02*
X11822291Y-10842531D01*
X11822291Y-10842531D02*
X11831815Y-10861579D01*
X11831815Y-10861579D02*
X11841339Y-10899674D01*
X11841339Y-10899674D02*
X11841339Y-10947293D01*
X11841339Y-10947293D02*
X11831815Y-10985389D01*
X11831815Y-10985389D02*
X11822291Y-11004436D01*
X11822291Y-11004436D02*
X11812767Y-11013960D01*
X11812767Y-11013960D02*
X11793720Y-11023484D01*
X11793720Y-11023484D02*
X11774672Y-11023484D01*
X11774672Y-11023484D02*
X11755624Y-11013960D01*
X11755624Y-11013960D02*
X11746101Y-11004436D01*
X11746101Y-11004436D02*
X11736577Y-10985389D01*
X11736577Y-10985389D02*
X11727053Y-10947293D01*
X11727053Y-10947293D02*
X11727053Y-10899674D01*
X11727053Y-10899674D02*
X11736577Y-10861579D01*
X11736577Y-10861579D02*
X11746101Y-10842531D01*
X11746101Y-10842531D02*
X11755624Y-10833008D01*
X11755624Y-10833008D02*
X11774672Y-10823484D01*
X11927053Y-11004436D02*
X11936577Y-11013960D01*
X11936577Y-11013960D02*
X11927053Y-11023484D01*
X11927053Y-11023484D02*
X11917529Y-11013960D01*
X11917529Y-11013960D02*
X11927053Y-11004436D01*
X11927053Y-11004436D02*
X11927053Y-11023484D01*
X12108005Y-10890150D02*
X12108005Y-11023484D01*
X12060386Y-10813960D02*
X12012767Y-10956817D01*
X12012767Y-10956817D02*
X12136577Y-10956817D01*
X12250862Y-10823484D02*
X12269910Y-10823484D01*
X12269910Y-10823484D02*
X12288958Y-10833008D01*
X12288958Y-10833008D02*
X12298482Y-10842531D01*
X12298482Y-10842531D02*
X12308005Y-10861579D01*
X12308005Y-10861579D02*
X12317529Y-10899674D01*
X12317529Y-10899674D02*
X12317529Y-10947293D01*
X12317529Y-10947293D02*
X12308005Y-10985389D01*
X12308005Y-10985389D02*
X12298482Y-11004436D01*
X12298482Y-11004436D02*
X12288958Y-11013960D01*
X12288958Y-11013960D02*
X12269910Y-11023484D01*
X12269910Y-11023484D02*
X12250862Y-11023484D01*
X12250862Y-11023484D02*
X12231815Y-11013960D01*
X12231815Y-11013960D02*
X12222291Y-11004436D01*
X12222291Y-11004436D02*
X12212767Y-10985389D01*
X12212767Y-10985389D02*
X12203243Y-10947293D01*
X12203243Y-10947293D02*
X12203243Y-10899674D01*
X12203243Y-10899674D02*
X12212767Y-10861579D01*
X12212767Y-10861579D02*
X12222291Y-10842531D01*
X12222291Y-10842531D02*
X12231815Y-10833008D01*
X12231815Y-10833008D02*
X12250862Y-10823484D01*
X12441339Y-10823484D02*
X12460386Y-10823484D01*
X12460386Y-10823484D02*
X12479434Y-10833008D01*
X12479434Y-10833008D02*
X12488958Y-10842531D01*
X12488958Y-10842531D02*
X12498482Y-10861579D01*
X12498482Y-10861579D02*
X12508005Y-10899674D01*
X12508005Y-10899674D02*
X12508005Y-10947293D01*
X12508005Y-10947293D02*
X12498482Y-10985389D01*
X12498482Y-10985389D02*
X12488958Y-11004436D01*
X12488958Y-11004436D02*
X12479434Y-11013960D01*
X12479434Y-11013960D02*
X12460386Y-11023484D01*
X12460386Y-11023484D02*
X12441339Y-11023484D01*
X12441339Y-11023484D02*
X12422291Y-11013960D01*
X12422291Y-11013960D02*
X12412767Y-11004436D01*
X12412767Y-11004436D02*
X12403243Y-10985389D01*
X12403243Y-10985389D02*
X12393720Y-10947293D01*
X12393720Y-10947293D02*
X12393720Y-10899674D01*
X12393720Y-10899674D02*
X12403243Y-10861579D01*
X12403243Y-10861579D02*
X12412767Y-10842531D01*
X12412767Y-10842531D02*
X12422291Y-10833008D01*
X12422291Y-10833008D02*
X12441339Y-10823484D01*
X12593720Y-11023484D02*
X12593720Y-10890150D01*
X12593720Y-10909198D02*
X12603243Y-10899674D01*
X12603243Y-10899674D02*
X12622291Y-10890150D01*
X12622291Y-10890150D02*
X12650863Y-10890150D01*
X12650863Y-10890150D02*
X12669910Y-10899674D01*
X12669910Y-10899674D02*
X12679434Y-10918722D01*
X12679434Y-10918722D02*
X12679434Y-11023484D01*
X12679434Y-10918722D02*
X12688958Y-10899674D01*
X12688958Y-10899674D02*
X12708005Y-10890150D01*
X12708005Y-10890150D02*
X12736577Y-10890150D01*
X12736577Y-10890150D02*
X12755624Y-10899674D01*
X12755624Y-10899674D02*
X12765148Y-10918722D01*
X12765148Y-10918722D02*
X12765148Y-11023484D01*
X12860386Y-11023484D02*
X12860386Y-10890150D01*
X12860386Y-10909198D02*
X12869910Y-10899674D01*
X12869910Y-10899674D02*
X12888958Y-10890150D01*
X12888958Y-10890150D02*
X12917529Y-10890150D01*
X12917529Y-10890150D02*
X12936577Y-10899674D01*
X12936577Y-10899674D02*
X12946101Y-10918722D01*
X12946101Y-10918722D02*
X12946101Y-11023484D01*
X12946101Y-10918722D02*
X12955624Y-10899674D01*
X12955624Y-10899674D02*
X12974672Y-10890150D01*
X12974672Y-10890150D02*
X13003243Y-10890150D01*
X13003243Y-10890150D02*
X13022291Y-10899674D01*
X13022291Y-10899674D02*
X13031815Y-10918722D01*
X13031815Y-10918722D02*
X13031815Y-11023484D01*
X13422291Y-10813960D02*
X13250863Y-11071103D01*
X13679434Y-10823484D02*
X13698482Y-10823484D01*
X13698482Y-10823484D02*
X13717529Y-10833008D01*
X13717529Y-10833008D02*
X13727053Y-10842531D01*
X13727053Y-10842531D02*
X13736577Y-10861579D01*
X13736577Y-10861579D02*
X13746101Y-10899674D01*
X13746101Y-10899674D02*
X13746101Y-10947293D01*
X13746101Y-10947293D02*
X13736577Y-10985389D01*
X13736577Y-10985389D02*
X13727053Y-11004436D01*
X13727053Y-11004436D02*
X13717529Y-11013960D01*
X13717529Y-11013960D02*
X13698482Y-11023484D01*
X13698482Y-11023484D02*
X13679434Y-11023484D01*
X13679434Y-11023484D02*
X13660386Y-11013960D01*
X13660386Y-11013960D02*
X13650863Y-11004436D01*
X13650863Y-11004436D02*
X13641339Y-10985389D01*
X13641339Y-10985389D02*
X13631815Y-10947293D01*
X13631815Y-10947293D02*
X13631815Y-10899674D01*
X13631815Y-10899674D02*
X13641339Y-10861579D01*
X13641339Y-10861579D02*
X13650863Y-10842531D01*
X13650863Y-10842531D02*
X13660386Y-10833008D01*
X13660386Y-10833008D02*
X13679434Y-10823484D01*
X13831815Y-11004436D02*
X13841339Y-11013960D01*
X13841339Y-11013960D02*
X13831815Y-11023484D01*
X13831815Y-11023484D02*
X13822291Y-11013960D01*
X13822291Y-11013960D02*
X13831815Y-11004436D01*
X13831815Y-11004436D02*
X13831815Y-11023484D01*
X13965148Y-10823484D02*
X13984196Y-10823484D01*
X13984196Y-10823484D02*
X14003244Y-10833008D01*
X14003244Y-10833008D02*
X14012767Y-10842531D01*
X14012767Y-10842531D02*
X14022291Y-10861579D01*
X14022291Y-10861579D02*
X14031815Y-10899674D01*
X14031815Y-10899674D02*
X14031815Y-10947293D01*
X14031815Y-10947293D02*
X14022291Y-10985389D01*
X14022291Y-10985389D02*
X14012767Y-11004436D01*
X14012767Y-11004436D02*
X14003244Y-11013960D01*
X14003244Y-11013960D02*
X13984196Y-11023484D01*
X13984196Y-11023484D02*
X13965148Y-11023484D01*
X13965148Y-11023484D02*
X13946101Y-11013960D01*
X13946101Y-11013960D02*
X13936577Y-11004436D01*
X13936577Y-11004436D02*
X13927053Y-10985389D01*
X13927053Y-10985389D02*
X13917529Y-10947293D01*
X13917529Y-10947293D02*
X13917529Y-10899674D01*
X13917529Y-10899674D02*
X13927053Y-10861579D01*
X13927053Y-10861579D02*
X13936577Y-10842531D01*
X13936577Y-10842531D02*
X13946101Y-10833008D01*
X13946101Y-10833008D02*
X13965148Y-10823484D01*
X14222291Y-11023484D02*
X14108006Y-11023484D01*
X14165148Y-11023484D02*
X14165148Y-10823484D01*
X14165148Y-10823484D02*
X14146101Y-10852055D01*
X14146101Y-10852055D02*
X14127053Y-10871103D01*
X14127053Y-10871103D02*
X14108006Y-10880627D01*
X14403244Y-10823484D02*
X14308006Y-10823484D01*
X14308006Y-10823484D02*
X14298482Y-10918722D01*
X14298482Y-10918722D02*
X14308006Y-10909198D01*
X14308006Y-10909198D02*
X14327053Y-10899674D01*
X14327053Y-10899674D02*
X14374672Y-10899674D01*
X14374672Y-10899674D02*
X14393720Y-10909198D01*
X14393720Y-10909198D02*
X14403244Y-10918722D01*
X14403244Y-10918722D02*
X14412767Y-10937770D01*
X14412767Y-10937770D02*
X14412767Y-10985389D01*
X14412767Y-10985389D02*
X14403244Y-11004436D01*
X14403244Y-11004436D02*
X14393720Y-11013960D01*
X14393720Y-11013960D02*
X14374672Y-11023484D01*
X14374672Y-11023484D02*
X14327053Y-11023484D01*
X14327053Y-11023484D02*
X14308006Y-11013960D01*
X14308006Y-11013960D02*
X14298482Y-11004436D01*
X14479434Y-10823484D02*
X14612767Y-10823484D01*
X14612767Y-10823484D02*
X14527053Y-11023484D01*
X14679434Y-10823484D02*
X14679434Y-10861579D01*
X14755625Y-10823484D02*
X14755625Y-10861579D01*
X15050863Y-11099674D02*
X15041339Y-11090150D01*
X15041339Y-11090150D02*
X15022291Y-11061579D01*
X15022291Y-11061579D02*
X15012768Y-11042531D01*
X15012768Y-11042531D02*
X15003244Y-11013960D01*
X15003244Y-11013960D02*
X14993720Y-10966341D01*
X14993720Y-10966341D02*
X14993720Y-10928246D01*
X14993720Y-10928246D02*
X15003244Y-10880627D01*
X15003244Y-10880627D02*
X15012768Y-10852055D01*
X15012768Y-10852055D02*
X15022291Y-10833008D01*
X15022291Y-10833008D02*
X15041339Y-10804436D01*
X15041339Y-10804436D02*
X15050863Y-10794912D01*
X15212768Y-10823484D02*
X15174672Y-10823484D01*
X15174672Y-10823484D02*
X15155625Y-10833008D01*
X15155625Y-10833008D02*
X15146101Y-10842531D01*
X15146101Y-10842531D02*
X15127053Y-10871103D01*
X15127053Y-10871103D02*
X15117529Y-10909198D01*
X15117529Y-10909198D02*
X15117529Y-10985389D01*
X15117529Y-10985389D02*
X15127053Y-11004436D01*
X15127053Y-11004436D02*
X15136577Y-11013960D01*
X15136577Y-11013960D02*
X15155625Y-11023484D01*
X15155625Y-11023484D02*
X15193720Y-11023484D01*
X15193720Y-11023484D02*
X15212768Y-11013960D01*
X15212768Y-11013960D02*
X15222291Y-11004436D01*
X15222291Y-11004436D02*
X15231815Y-10985389D01*
X15231815Y-10985389D02*
X15231815Y-10937770D01*
X15231815Y-10937770D02*
X15222291Y-10918722D01*
X15222291Y-10918722D02*
X15212768Y-10909198D01*
X15212768Y-10909198D02*
X15193720Y-10899674D01*
X15193720Y-10899674D02*
X15155625Y-10899674D01*
X15155625Y-10899674D02*
X15136577Y-10909198D01*
X15136577Y-10909198D02*
X15127053Y-10918722D01*
X15127053Y-10918722D02*
X15117529Y-10937770D01*
X15422291Y-11023484D02*
X15308006Y-11023484D01*
X15365148Y-11023484D02*
X15365148Y-10823484D01*
X15365148Y-10823484D02*
X15346101Y-10852055D01*
X15346101Y-10852055D02*
X15327053Y-10871103D01*
X15327053Y-10871103D02*
X15308006Y-10880627D01*
X15660387Y-11023484D02*
X15660387Y-10823484D01*
X15746101Y-11023484D02*
X15746101Y-10918722D01*
X15746101Y-10918722D02*
X15736577Y-10899674D01*
X15736577Y-10899674D02*
X15717530Y-10890150D01*
X15717530Y-10890150D02*
X15688958Y-10890150D01*
X15688958Y-10890150D02*
X15669910Y-10899674D01*
X15669910Y-10899674D02*
X15660387Y-10909198D01*
X15869910Y-11023484D02*
X15850863Y-11013960D01*
X15850863Y-11013960D02*
X15841339Y-11004436D01*
X15841339Y-11004436D02*
X15831815Y-10985389D01*
X15831815Y-10985389D02*
X15831815Y-10928246D01*
X15831815Y-10928246D02*
X15841339Y-10909198D01*
X15841339Y-10909198D02*
X15850863Y-10899674D01*
X15850863Y-10899674D02*
X15869910Y-10890150D01*
X15869910Y-10890150D02*
X15898482Y-10890150D01*
X15898482Y-10890150D02*
X15917530Y-10899674D01*
X15917530Y-10899674D02*
X15927053Y-10909198D01*
X15927053Y-10909198D02*
X15936577Y-10928246D01*
X15936577Y-10928246D02*
X15936577Y-10985389D01*
X15936577Y-10985389D02*
X15927053Y-11004436D01*
X15927053Y-11004436D02*
X15917530Y-11013960D01*
X15917530Y-11013960D02*
X15898482Y-11023484D01*
X15898482Y-11023484D02*
X15869910Y-11023484D01*
X16050863Y-11023484D02*
X16031815Y-11013960D01*
X16031815Y-11013960D02*
X16022291Y-10994912D01*
X16022291Y-10994912D02*
X16022291Y-10823484D01*
X16203244Y-11013960D02*
X16184196Y-11023484D01*
X16184196Y-11023484D02*
X16146101Y-11023484D01*
X16146101Y-11023484D02*
X16127053Y-11013960D01*
X16127053Y-11013960D02*
X16117530Y-10994912D01*
X16117530Y-10994912D02*
X16117530Y-10918722D01*
X16117530Y-10918722D02*
X16127053Y-10899674D01*
X16127053Y-10899674D02*
X16146101Y-10890150D01*
X16146101Y-10890150D02*
X16184196Y-10890150D01*
X16184196Y-10890150D02*
X16203244Y-10899674D01*
X16203244Y-10899674D02*
X16212768Y-10918722D01*
X16212768Y-10918722D02*
X16212768Y-10937770D01*
X16212768Y-10937770D02*
X16117530Y-10956817D01*
X16288958Y-11013960D02*
X16308006Y-11023484D01*
X16308006Y-11023484D02*
X16346101Y-11023484D01*
X16346101Y-11023484D02*
X16365149Y-11013960D01*
X16365149Y-11013960D02*
X16374672Y-10994912D01*
X16374672Y-10994912D02*
X16374672Y-10985389D01*
X16374672Y-10985389D02*
X16365149Y-10966341D01*
X16365149Y-10966341D02*
X16346101Y-10956817D01*
X16346101Y-10956817D02*
X16317530Y-10956817D01*
X16317530Y-10956817D02*
X16298482Y-10947293D01*
X16298482Y-10947293D02*
X16288958Y-10928246D01*
X16288958Y-10928246D02*
X16288958Y-10918722D01*
X16288958Y-10918722D02*
X16298482Y-10899674D01*
X16298482Y-10899674D02*
X16317530Y-10890150D01*
X16317530Y-10890150D02*
X16346101Y-10890150D01*
X16346101Y-10890150D02*
X16365149Y-10899674D01*
X16441339Y-11099674D02*
X16450863Y-11090150D01*
X16450863Y-11090150D02*
X16469911Y-11061579D01*
X16469911Y-11061579D02*
X16479434Y-11042531D01*
X16479434Y-11042531D02*
X16488958Y-11013960D01*
X16488958Y-11013960D02*
X16498482Y-10966341D01*
X16498482Y-10966341D02*
X16498482Y-10928246D01*
X16498482Y-10928246D02*
X16488958Y-10880627D01*
X16488958Y-10880627D02*
X16479434Y-10852055D01*
X16479434Y-10852055D02*
X16469911Y-10833008D01*
X16469911Y-10833008D02*
X16450863Y-10804436D01*
X16450863Y-10804436D02*
X16441339Y-10794912D01*
D10*
X11475800Y-11196000D02*
G75*
G02*
X11415800Y-11196000I-30000J0D01*
G01*
X11415800Y-11196000D02*
G75*
G02*
X11475800Y-11196000I30000J0D01*
G01*
D11*
X11774672Y-11087484D02*
X11793720Y-11087484D01*
X11793720Y-11087484D02*
X11812767Y-11097008D01*
X11812767Y-11097008D02*
X11822291Y-11106531D01*
X11822291Y-11106531D02*
X11831815Y-11125579D01*
X11831815Y-11125579D02*
X11841339Y-11163674D01*
X11841339Y-11163674D02*
X11841339Y-11211293D01*
X11841339Y-11211293D02*
X11831815Y-11249388D01*
X11831815Y-11249388D02*
X11822291Y-11268436D01*
X11822291Y-11268436D02*
X11812767Y-11277960D01*
X11812767Y-11277960D02*
X11793720Y-11287484D01*
X11793720Y-11287484D02*
X11774672Y-11287484D01*
X11774672Y-11287484D02*
X11755624Y-11277960D01*
X11755624Y-11277960D02*
X11746101Y-11268436D01*
X11746101Y-11268436D02*
X11736577Y-11249388D01*
X11736577Y-11249388D02*
X11727053Y-11211293D01*
X11727053Y-11211293D02*
X11727053Y-11163674D01*
X11727053Y-11163674D02*
X11736577Y-11125579D01*
X11736577Y-11125579D02*
X11746101Y-11106531D01*
X11746101Y-11106531D02*
X11755624Y-11097008D01*
X11755624Y-11097008D02*
X11774672Y-11087484D01*
X11927053Y-11268436D02*
X11936577Y-11277960D01*
X11936577Y-11277960D02*
X11927053Y-11287484D01*
X11927053Y-11287484D02*
X11917529Y-11277960D01*
X11917529Y-11277960D02*
X11927053Y-11268436D01*
X11927053Y-11268436D02*
X11927053Y-11287484D01*
X12108005Y-11087484D02*
X12069910Y-11087484D01*
X12069910Y-11087484D02*
X12050862Y-11097008D01*
X12050862Y-11097008D02*
X12041339Y-11106531D01*
X12041339Y-11106531D02*
X12022291Y-11135103D01*
X12022291Y-11135103D02*
X12012767Y-11173198D01*
X12012767Y-11173198D02*
X12012767Y-11249388D01*
X12012767Y-11249388D02*
X12022291Y-11268436D01*
X12022291Y-11268436D02*
X12031815Y-11277960D01*
X12031815Y-11277960D02*
X12050862Y-11287484D01*
X12050862Y-11287484D02*
X12088958Y-11287484D01*
X12088958Y-11287484D02*
X12108005Y-11277960D01*
X12108005Y-11277960D02*
X12117529Y-11268436D01*
X12117529Y-11268436D02*
X12127053Y-11249388D01*
X12127053Y-11249388D02*
X12127053Y-11201769D01*
X12127053Y-11201769D02*
X12117529Y-11182722D01*
X12117529Y-11182722D02*
X12108005Y-11173198D01*
X12108005Y-11173198D02*
X12088958Y-11163674D01*
X12088958Y-11163674D02*
X12050862Y-11163674D01*
X12050862Y-11163674D02*
X12031815Y-11173198D01*
X12031815Y-11173198D02*
X12022291Y-11182722D01*
X12022291Y-11182722D02*
X12012767Y-11201769D01*
X12250862Y-11087484D02*
X12269910Y-11087484D01*
X12269910Y-11087484D02*
X12288958Y-11097008D01*
X12288958Y-11097008D02*
X12298482Y-11106531D01*
X12298482Y-11106531D02*
X12308005Y-11125579D01*
X12308005Y-11125579D02*
X12317529Y-11163674D01*
X12317529Y-11163674D02*
X12317529Y-11211293D01*
X12317529Y-11211293D02*
X12308005Y-11249388D01*
X12308005Y-11249388D02*
X12298482Y-11268436D01*
X12298482Y-11268436D02*
X12288958Y-11277960D01*
X12288958Y-11277960D02*
X12269910Y-11287484D01*
X12269910Y-11287484D02*
X12250862Y-11287484D01*
X12250862Y-11287484D02*
X12231815Y-11277960D01*
X12231815Y-11277960D02*
X12222291Y-11268436D01*
X12222291Y-11268436D02*
X12212767Y-11249388D01*
X12212767Y-11249388D02*
X12203243Y-11211293D01*
X12203243Y-11211293D02*
X12203243Y-11163674D01*
X12203243Y-11163674D02*
X12212767Y-11125579D01*
X12212767Y-11125579D02*
X12222291Y-11106531D01*
X12222291Y-11106531D02*
X12231815Y-11097008D01*
X12231815Y-11097008D02*
X12250862Y-11087484D01*
X12441339Y-11087484D02*
X12460386Y-11087484D01*
X12460386Y-11087484D02*
X12479434Y-11097008D01*
X12479434Y-11097008D02*
X12488958Y-11106531D01*
X12488958Y-11106531D02*
X12498482Y-11125579D01*
X12498482Y-11125579D02*
X12508005Y-11163674D01*
X12508005Y-11163674D02*
X12508005Y-11211293D01*
X12508005Y-11211293D02*
X12498482Y-11249388D01*
X12498482Y-11249388D02*
X12488958Y-11268436D01*
X12488958Y-11268436D02*
X12479434Y-11277960D01*
X12479434Y-11277960D02*
X12460386Y-11287484D01*
X12460386Y-11287484D02*
X12441339Y-11287484D01*
X12441339Y-11287484D02*
X12422291Y-11277960D01*
X12422291Y-11277960D02*
X12412767Y-11268436D01*
X12412767Y-11268436D02*
X12403243Y-11249388D01*
X12403243Y-11249388D02*
X12393720Y-11211293D01*
X12393720Y-11211293D02*
X12393720Y-11163674D01*
X12393720Y-11163674D02*
X12403243Y-11125579D01*
X12403243Y-11125579D02*
X12412767Y-11106531D01*
X12412767Y-11106531D02*
X12422291Y-11097008D01*
X12422291Y-11097008D02*
X12441339Y-11087484D01*
X12593720Y-11287484D02*
X12593720Y-11154150D01*
X12593720Y-11173198D02*
X12603243Y-11163674D01*
X12603243Y-11163674D02*
X12622291Y-11154150D01*
X12622291Y-11154150D02*
X12650863Y-11154150D01*
X12650863Y-11154150D02*
X12669910Y-11163674D01*
X12669910Y-11163674D02*
X12679434Y-11182722D01*
X12679434Y-11182722D02*
X12679434Y-11287484D01*
X12679434Y-11182722D02*
X12688958Y-11163674D01*
X12688958Y-11163674D02*
X12708005Y-11154150D01*
X12708005Y-11154150D02*
X12736577Y-11154150D01*
X12736577Y-11154150D02*
X12755624Y-11163674D01*
X12755624Y-11163674D02*
X12765148Y-11182722D01*
X12765148Y-11182722D02*
X12765148Y-11287484D01*
X12860386Y-11287484D02*
X12860386Y-11154150D01*
X12860386Y-11173198D02*
X12869910Y-11163674D01*
X12869910Y-11163674D02*
X12888958Y-11154150D01*
X12888958Y-11154150D02*
X12917529Y-11154150D01*
X12917529Y-11154150D02*
X12936577Y-11163674D01*
X12936577Y-11163674D02*
X12946101Y-11182722D01*
X12946101Y-11182722D02*
X12946101Y-11287484D01*
X12946101Y-11182722D02*
X12955624Y-11163674D01*
X12955624Y-11163674D02*
X12974672Y-11154150D01*
X12974672Y-11154150D02*
X13003243Y-11154150D01*
X13003243Y-11154150D02*
X13022291Y-11163674D01*
X13022291Y-11163674D02*
X13031815Y-11182722D01*
X13031815Y-11182722D02*
X13031815Y-11287484D01*
X13422291Y-11077960D02*
X13250863Y-11335103D01*
X13679434Y-11087484D02*
X13698482Y-11087484D01*
X13698482Y-11087484D02*
X13717529Y-11097008D01*
X13717529Y-11097008D02*
X13727053Y-11106531D01*
X13727053Y-11106531D02*
X13736577Y-11125579D01*
X13736577Y-11125579D02*
X13746101Y-11163674D01*
X13746101Y-11163674D02*
X13746101Y-11211293D01*
X13746101Y-11211293D02*
X13736577Y-11249388D01*
X13736577Y-11249388D02*
X13727053Y-11268436D01*
X13727053Y-11268436D02*
X13717529Y-11277960D01*
X13717529Y-11277960D02*
X13698482Y-11287484D01*
X13698482Y-11287484D02*
X13679434Y-11287484D01*
X13679434Y-11287484D02*
X13660386Y-11277960D01*
X13660386Y-11277960D02*
X13650863Y-11268436D01*
X13650863Y-11268436D02*
X13641339Y-11249388D01*
X13641339Y-11249388D02*
X13631815Y-11211293D01*
X13631815Y-11211293D02*
X13631815Y-11163674D01*
X13631815Y-11163674D02*
X13641339Y-11125579D01*
X13641339Y-11125579D02*
X13650863Y-11106531D01*
X13650863Y-11106531D02*
X13660386Y-11097008D01*
X13660386Y-11097008D02*
X13679434Y-11087484D01*
X13831815Y-11268436D02*
X13841339Y-11277960D01*
X13841339Y-11277960D02*
X13831815Y-11287484D01*
X13831815Y-11287484D02*
X13822291Y-11277960D01*
X13822291Y-11277960D02*
X13831815Y-11268436D01*
X13831815Y-11268436D02*
X13831815Y-11287484D01*
X13965148Y-11087484D02*
X13984196Y-11087484D01*
X13984196Y-11087484D02*
X14003244Y-11097008D01*
X14003244Y-11097008D02*
X14012767Y-11106531D01*
X14012767Y-11106531D02*
X14022291Y-11125579D01*
X14022291Y-11125579D02*
X14031815Y-11163674D01*
X14031815Y-11163674D02*
X14031815Y-11211293D01*
X14031815Y-11211293D02*
X14022291Y-11249388D01*
X14022291Y-11249388D02*
X14012767Y-11268436D01*
X14012767Y-11268436D02*
X14003244Y-11277960D01*
X14003244Y-11277960D02*
X13984196Y-11287484D01*
X13984196Y-11287484D02*
X13965148Y-11287484D01*
X13965148Y-11287484D02*
X13946101Y-11277960D01*
X13946101Y-11277960D02*
X13936577Y-11268436D01*
X13936577Y-11268436D02*
X13927053Y-11249388D01*
X13927053Y-11249388D02*
X13917529Y-11211293D01*
X13917529Y-11211293D02*
X13917529Y-11163674D01*
X13917529Y-11163674D02*
X13927053Y-11125579D01*
X13927053Y-11125579D02*
X13936577Y-11106531D01*
X13936577Y-11106531D02*
X13946101Y-11097008D01*
X13946101Y-11097008D02*
X13965148Y-11087484D01*
X14108006Y-11106531D02*
X14117529Y-11097008D01*
X14117529Y-11097008D02*
X14136577Y-11087484D01*
X14136577Y-11087484D02*
X14184196Y-11087484D01*
X14184196Y-11087484D02*
X14203244Y-11097008D01*
X14203244Y-11097008D02*
X14212767Y-11106531D01*
X14212767Y-11106531D02*
X14222291Y-11125579D01*
X14222291Y-11125579D02*
X14222291Y-11144627D01*
X14222291Y-11144627D02*
X14212767Y-11173198D01*
X14212767Y-11173198D02*
X14098482Y-11287484D01*
X14098482Y-11287484D02*
X14222291Y-11287484D01*
X14288958Y-11087484D02*
X14412767Y-11087484D01*
X14412767Y-11087484D02*
X14346101Y-11163674D01*
X14346101Y-11163674D02*
X14374672Y-11163674D01*
X14374672Y-11163674D02*
X14393720Y-11173198D01*
X14393720Y-11173198D02*
X14403244Y-11182722D01*
X14403244Y-11182722D02*
X14412767Y-11201769D01*
X14412767Y-11201769D02*
X14412767Y-11249388D01*
X14412767Y-11249388D02*
X14403244Y-11268436D01*
X14403244Y-11268436D02*
X14393720Y-11277960D01*
X14393720Y-11277960D02*
X14374672Y-11287484D01*
X14374672Y-11287484D02*
X14317529Y-11287484D01*
X14317529Y-11287484D02*
X14298482Y-11277960D01*
X14298482Y-11277960D02*
X14288958Y-11268436D01*
X14584196Y-11087484D02*
X14546101Y-11087484D01*
X14546101Y-11087484D02*
X14527053Y-11097008D01*
X14527053Y-11097008D02*
X14517529Y-11106531D01*
X14517529Y-11106531D02*
X14498482Y-11135103D01*
X14498482Y-11135103D02*
X14488958Y-11173198D01*
X14488958Y-11173198D02*
X14488958Y-11249388D01*
X14488958Y-11249388D02*
X14498482Y-11268436D01*
X14498482Y-11268436D02*
X14508006Y-11277960D01*
X14508006Y-11277960D02*
X14527053Y-11287484D01*
X14527053Y-11287484D02*
X14565148Y-11287484D01*
X14565148Y-11287484D02*
X14584196Y-11277960D01*
X14584196Y-11277960D02*
X14593720Y-11268436D01*
X14593720Y-11268436D02*
X14603244Y-11249388D01*
X14603244Y-11249388D02*
X14603244Y-11201769D01*
X14603244Y-11201769D02*
X14593720Y-11182722D01*
X14593720Y-11182722D02*
X14584196Y-11173198D01*
X14584196Y-11173198D02*
X14565148Y-11163674D01*
X14565148Y-11163674D02*
X14527053Y-11163674D01*
X14527053Y-11163674D02*
X14508006Y-11173198D01*
X14508006Y-11173198D02*
X14498482Y-11182722D01*
X14498482Y-11182722D02*
X14488958Y-11201769D01*
X14679434Y-11087484D02*
X14679434Y-11125579D01*
X14755625Y-11087484D02*
X14755625Y-11125579D01*
X15050863Y-11363674D02*
X15041339Y-11354150D01*
X15041339Y-11354150D02*
X15022291Y-11325579D01*
X15022291Y-11325579D02*
X15012768Y-11306531D01*
X15012768Y-11306531D02*
X15003244Y-11277960D01*
X15003244Y-11277960D02*
X14993720Y-11230341D01*
X14993720Y-11230341D02*
X14993720Y-11192246D01*
X14993720Y-11192246D02*
X15003244Y-11144627D01*
X15003244Y-11144627D02*
X15012768Y-11116055D01*
X15012768Y-11116055D02*
X15022291Y-11097008D01*
X15022291Y-11097008D02*
X15041339Y-11068436D01*
X15041339Y-11068436D02*
X15050863Y-11058912D01*
X15165148Y-11087484D02*
X15184196Y-11087484D01*
X15184196Y-11087484D02*
X15203244Y-11097008D01*
X15203244Y-11097008D02*
X15212768Y-11106531D01*
X15212768Y-11106531D02*
X15222291Y-11125579D01*
X15222291Y-11125579D02*
X15231815Y-11163674D01*
X15231815Y-11163674D02*
X15231815Y-11211293D01*
X15231815Y-11211293D02*
X15222291Y-11249388D01*
X15222291Y-11249388D02*
X15212768Y-11268436D01*
X15212768Y-11268436D02*
X15203244Y-11277960D01*
X15203244Y-11277960D02*
X15184196Y-11287484D01*
X15184196Y-11287484D02*
X15165148Y-11287484D01*
X15165148Y-11287484D02*
X15146101Y-11277960D01*
X15146101Y-11277960D02*
X15136577Y-11268436D01*
X15136577Y-11268436D02*
X15127053Y-11249388D01*
X15127053Y-11249388D02*
X15117529Y-11211293D01*
X15117529Y-11211293D02*
X15117529Y-11163674D01*
X15117529Y-11163674D02*
X15127053Y-11125579D01*
X15127053Y-11125579D02*
X15136577Y-11106531D01*
X15136577Y-11106531D02*
X15146101Y-11097008D01*
X15146101Y-11097008D02*
X15165148Y-11087484D01*
X15469910Y-11287484D02*
X15469910Y-11087484D01*
X15555625Y-11287484D02*
X15555625Y-11182722D01*
X15555625Y-11182722D02*
X15546101Y-11163674D01*
X15546101Y-11163674D02*
X15527053Y-11154150D01*
X15527053Y-11154150D02*
X15498482Y-11154150D01*
X15498482Y-11154150D02*
X15479434Y-11163674D01*
X15479434Y-11163674D02*
X15469910Y-11173198D01*
X15679434Y-11287484D02*
X15660387Y-11277960D01*
X15660387Y-11277960D02*
X15650863Y-11268436D01*
X15650863Y-11268436D02*
X15641339Y-11249388D01*
X15641339Y-11249388D02*
X15641339Y-11192246D01*
X15641339Y-11192246D02*
X15650863Y-11173198D01*
X15650863Y-11173198D02*
X15660387Y-11163674D01*
X15660387Y-11163674D02*
X15679434Y-11154150D01*
X15679434Y-11154150D02*
X15708006Y-11154150D01*
X15708006Y-11154150D02*
X15727053Y-11163674D01*
X15727053Y-11163674D02*
X15736577Y-11173198D01*
X15736577Y-11173198D02*
X15746101Y-11192246D01*
X15746101Y-11192246D02*
X15746101Y-11249388D01*
X15746101Y-11249388D02*
X15736577Y-11268436D01*
X15736577Y-11268436D02*
X15727053Y-11277960D01*
X15727053Y-11277960D02*
X15708006Y-11287484D01*
X15708006Y-11287484D02*
X15679434Y-11287484D01*
X15860387Y-11287484D02*
X15841339Y-11277960D01*
X15841339Y-11277960D02*
X15831815Y-11258912D01*
X15831815Y-11258912D02*
X15831815Y-11087484D01*
X16012768Y-11277960D02*
X15993720Y-11287484D01*
X15993720Y-11287484D02*
X15955625Y-11287484D01*
X15955625Y-11287484D02*
X15936577Y-11277960D01*
X15936577Y-11277960D02*
X15927053Y-11258912D01*
X15927053Y-11258912D02*
X15927053Y-11182722D01*
X15927053Y-11182722D02*
X15936577Y-11163674D01*
X15936577Y-11163674D02*
X15955625Y-11154150D01*
X15955625Y-11154150D02*
X15993720Y-11154150D01*
X15993720Y-11154150D02*
X16012768Y-11163674D01*
X16012768Y-11163674D02*
X16022291Y-11182722D01*
X16022291Y-11182722D02*
X16022291Y-11201769D01*
X16022291Y-11201769D02*
X15927053Y-11220817D01*
X16098482Y-11277960D02*
X16117530Y-11287484D01*
X16117530Y-11287484D02*
X16155625Y-11287484D01*
X16155625Y-11287484D02*
X16174672Y-11277960D01*
X16174672Y-11277960D02*
X16184196Y-11258912D01*
X16184196Y-11258912D02*
X16184196Y-11249388D01*
X16184196Y-11249388D02*
X16174672Y-11230341D01*
X16174672Y-11230341D02*
X16155625Y-11220817D01*
X16155625Y-11220817D02*
X16127053Y-11220817D01*
X16127053Y-11220817D02*
X16108006Y-11211293D01*
X16108006Y-11211293D02*
X16098482Y-11192246D01*
X16098482Y-11192246D02*
X16098482Y-11182722D01*
X16098482Y-11182722D02*
X16108006Y-11163674D01*
X16108006Y-11163674D02*
X16127053Y-11154150D01*
X16127053Y-11154150D02*
X16155625Y-11154150D01*
X16155625Y-11154150D02*
X16174672Y-11163674D01*
X16422292Y-11211293D02*
X16574673Y-11211293D01*
X16498482Y-11287484D02*
X16498482Y-11135103D01*
X16850863Y-11173198D02*
X16831815Y-11163674D01*
X16831815Y-11163674D02*
X16822292Y-11154150D01*
X16822292Y-11154150D02*
X16812768Y-11135103D01*
X16812768Y-11135103D02*
X16812768Y-11125579D01*
X16812768Y-11125579D02*
X16822292Y-11106531D01*
X16822292Y-11106531D02*
X16831815Y-11097008D01*
X16831815Y-11097008D02*
X16850863Y-11087484D01*
X16850863Y-11087484D02*
X16888958Y-11087484D01*
X16888958Y-11087484D02*
X16908006Y-11097008D01*
X16908006Y-11097008D02*
X16917530Y-11106531D01*
X16917530Y-11106531D02*
X16927054Y-11125579D01*
X16927054Y-11125579D02*
X16927054Y-11135103D01*
X16927054Y-11135103D02*
X16917530Y-11154150D01*
X16917530Y-11154150D02*
X16908006Y-11163674D01*
X16908006Y-11163674D02*
X16888958Y-11173198D01*
X16888958Y-11173198D02*
X16850863Y-11173198D01*
X16850863Y-11173198D02*
X16831815Y-11182722D01*
X16831815Y-11182722D02*
X16822292Y-11192246D01*
X16822292Y-11192246D02*
X16812768Y-11211293D01*
X16812768Y-11211293D02*
X16812768Y-11249388D01*
X16812768Y-11249388D02*
X16822292Y-11268436D01*
X16822292Y-11268436D02*
X16831815Y-11277960D01*
X16831815Y-11277960D02*
X16850863Y-11287484D01*
X16850863Y-11287484D02*
X16888958Y-11287484D01*
X16888958Y-11287484D02*
X16908006Y-11277960D01*
X16908006Y-11277960D02*
X16917530Y-11268436D01*
X16917530Y-11268436D02*
X16927054Y-11249388D01*
X16927054Y-11249388D02*
X16927054Y-11211293D01*
X16927054Y-11211293D02*
X16917530Y-11192246D01*
X16917530Y-11192246D02*
X16908006Y-11182722D01*
X16908006Y-11182722D02*
X16888958Y-11173198D01*
X17155625Y-11277960D02*
X17174673Y-11287484D01*
X17174673Y-11287484D02*
X17212768Y-11287484D01*
X17212768Y-11287484D02*
X17231816Y-11277960D01*
X17231816Y-11277960D02*
X17241339Y-11258912D01*
X17241339Y-11258912D02*
X17241339Y-11249388D01*
X17241339Y-11249388D02*
X17231816Y-11230341D01*
X17231816Y-11230341D02*
X17212768Y-11220817D01*
X17212768Y-11220817D02*
X17184196Y-11220817D01*
X17184196Y-11220817D02*
X17165149Y-11211293D01*
X17165149Y-11211293D02*
X17155625Y-11192246D01*
X17155625Y-11192246D02*
X17155625Y-11182722D01*
X17155625Y-11182722D02*
X17165149Y-11163674D01*
X17165149Y-11163674D02*
X17184196Y-11154150D01*
X17184196Y-11154150D02*
X17212768Y-11154150D01*
X17212768Y-11154150D02*
X17231816Y-11163674D01*
X17355625Y-11287484D02*
X17336577Y-11277960D01*
X17336577Y-11277960D02*
X17327054Y-11258912D01*
X17327054Y-11258912D02*
X17327054Y-11087484D01*
X17460387Y-11287484D02*
X17441339Y-11277960D01*
X17441339Y-11277960D02*
X17431816Y-11268436D01*
X17431816Y-11268436D02*
X17422292Y-11249388D01*
X17422292Y-11249388D02*
X17422292Y-11192246D01*
X17422292Y-11192246D02*
X17431816Y-11173198D01*
X17431816Y-11173198D02*
X17441339Y-11163674D01*
X17441339Y-11163674D02*
X17460387Y-11154150D01*
X17460387Y-11154150D02*
X17488958Y-11154150D01*
X17488958Y-11154150D02*
X17508006Y-11163674D01*
X17508006Y-11163674D02*
X17517530Y-11173198D01*
X17517530Y-11173198D02*
X17527054Y-11192246D01*
X17527054Y-11192246D02*
X17527054Y-11249388D01*
X17527054Y-11249388D02*
X17517530Y-11268436D01*
X17517530Y-11268436D02*
X17508006Y-11277960D01*
X17508006Y-11277960D02*
X17488958Y-11287484D01*
X17488958Y-11287484D02*
X17460387Y-11287484D01*
X17584197Y-11154150D02*
X17660387Y-11154150D01*
X17612768Y-11087484D02*
X17612768Y-11258912D01*
X17612768Y-11258912D02*
X17622292Y-11277960D01*
X17622292Y-11277960D02*
X17641339Y-11287484D01*
X17641339Y-11287484D02*
X17660387Y-11287484D01*
X17717530Y-11277960D02*
X17736577Y-11287484D01*
X17736577Y-11287484D02*
X17774673Y-11287484D01*
X17774673Y-11287484D02*
X17793720Y-11277960D01*
X17793720Y-11277960D02*
X17803244Y-11258912D01*
X17803244Y-11258912D02*
X17803244Y-11249388D01*
X17803244Y-11249388D02*
X17793720Y-11230341D01*
X17793720Y-11230341D02*
X17774673Y-11220817D01*
X17774673Y-11220817D02*
X17746101Y-11220817D01*
X17746101Y-11220817D02*
X17727054Y-11211293D01*
X17727054Y-11211293D02*
X17717530Y-11192246D01*
X17717530Y-11192246D02*
X17717530Y-11182722D01*
X17717530Y-11182722D02*
X17727054Y-11163674D01*
X17727054Y-11163674D02*
X17746101Y-11154150D01*
X17746101Y-11154150D02*
X17774673Y-11154150D01*
X17774673Y-11154150D02*
X17793720Y-11163674D01*
X17869911Y-11363674D02*
X17879435Y-11354150D01*
X17879435Y-11354150D02*
X17898482Y-11325579D01*
X17898482Y-11325579D02*
X17908006Y-11306531D01*
X17908006Y-11306531D02*
X17917530Y-11277960D01*
X17917530Y-11277960D02*
X17927054Y-11230341D01*
X17927054Y-11230341D02*
X17927054Y-11192246D01*
X17927054Y-11192246D02*
X17917530Y-11144627D01*
X17917530Y-11144627D02*
X17908006Y-11116055D01*
X17908006Y-11116055D02*
X17898482Y-11097008D01*
X17898482Y-11097008D02*
X17879435Y-11068436D01*
X17879435Y-11068436D02*
X17869911Y-11058912D01*
D10*
X11425800Y-11410000D02*
X11425800Y-11510000D01*
X11375800Y-11460000D02*
X11475800Y-11460000D01*
D11*
X11841339Y-11551484D02*
X11727053Y-11551484D01*
X11784196Y-11551484D02*
X11784196Y-11351484D01*
X11784196Y-11351484D02*
X11765148Y-11380055D01*
X11765148Y-11380055D02*
X11746101Y-11399103D01*
X11746101Y-11399103D02*
X11727053Y-11408627D01*
X11927053Y-11532436D02*
X11936577Y-11541960D01*
X11936577Y-11541960D02*
X11927053Y-11551484D01*
X11927053Y-11551484D02*
X11917529Y-11541960D01*
X11917529Y-11541960D02*
X11927053Y-11532436D01*
X11927053Y-11532436D02*
X11927053Y-11551484D01*
X12060386Y-11351484D02*
X12079434Y-11351484D01*
X12079434Y-11351484D02*
X12098482Y-11361008D01*
X12098482Y-11361008D02*
X12108005Y-11370531D01*
X12108005Y-11370531D02*
X12117529Y-11389579D01*
X12117529Y-11389579D02*
X12127053Y-11427674D01*
X12127053Y-11427674D02*
X12127053Y-11475293D01*
X12127053Y-11475293D02*
X12117529Y-11513388D01*
X12117529Y-11513388D02*
X12108005Y-11532436D01*
X12108005Y-11532436D02*
X12098482Y-11541960D01*
X12098482Y-11541960D02*
X12079434Y-11551484D01*
X12079434Y-11551484D02*
X12060386Y-11551484D01*
X12060386Y-11551484D02*
X12041339Y-11541960D01*
X12041339Y-11541960D02*
X12031815Y-11532436D01*
X12031815Y-11532436D02*
X12022291Y-11513388D01*
X12022291Y-11513388D02*
X12012767Y-11475293D01*
X12012767Y-11475293D02*
X12012767Y-11427674D01*
X12012767Y-11427674D02*
X12022291Y-11389579D01*
X12022291Y-11389579D02*
X12031815Y-11370531D01*
X12031815Y-11370531D02*
X12041339Y-11361008D01*
X12041339Y-11361008D02*
X12060386Y-11351484D01*
X12250862Y-11351484D02*
X12269910Y-11351484D01*
X12269910Y-11351484D02*
X12288958Y-11361008D01*
X12288958Y-11361008D02*
X12298482Y-11370531D01*
X12298482Y-11370531D02*
X12308005Y-11389579D01*
X12308005Y-11389579D02*
X12317529Y-11427674D01*
X12317529Y-11427674D02*
X12317529Y-11475293D01*
X12317529Y-11475293D02*
X12308005Y-11513388D01*
X12308005Y-11513388D02*
X12298482Y-11532436D01*
X12298482Y-11532436D02*
X12288958Y-11541960D01*
X12288958Y-11541960D02*
X12269910Y-11551484D01*
X12269910Y-11551484D02*
X12250862Y-11551484D01*
X12250862Y-11551484D02*
X12231815Y-11541960D01*
X12231815Y-11541960D02*
X12222291Y-11532436D01*
X12222291Y-11532436D02*
X12212767Y-11513388D01*
X12212767Y-11513388D02*
X12203243Y-11475293D01*
X12203243Y-11475293D02*
X12203243Y-11427674D01*
X12203243Y-11427674D02*
X12212767Y-11389579D01*
X12212767Y-11389579D02*
X12222291Y-11370531D01*
X12222291Y-11370531D02*
X12231815Y-11361008D01*
X12231815Y-11361008D02*
X12250862Y-11351484D01*
X12441339Y-11351484D02*
X12460386Y-11351484D01*
X12460386Y-11351484D02*
X12479434Y-11361008D01*
X12479434Y-11361008D02*
X12488958Y-11370531D01*
X12488958Y-11370531D02*
X12498482Y-11389579D01*
X12498482Y-11389579D02*
X12508005Y-11427674D01*
X12508005Y-11427674D02*
X12508005Y-11475293D01*
X12508005Y-11475293D02*
X12498482Y-11513388D01*
X12498482Y-11513388D02*
X12488958Y-11532436D01*
X12488958Y-11532436D02*
X12479434Y-11541960D01*
X12479434Y-11541960D02*
X12460386Y-11551484D01*
X12460386Y-11551484D02*
X12441339Y-11551484D01*
X12441339Y-11551484D02*
X12422291Y-11541960D01*
X12422291Y-11541960D02*
X12412767Y-11532436D01*
X12412767Y-11532436D02*
X12403243Y-11513388D01*
X12403243Y-11513388D02*
X12393720Y-11475293D01*
X12393720Y-11475293D02*
X12393720Y-11427674D01*
X12393720Y-11427674D02*
X12403243Y-11389579D01*
X12403243Y-11389579D02*
X12412767Y-11370531D01*
X12412767Y-11370531D02*
X12422291Y-11361008D01*
X12422291Y-11361008D02*
X12441339Y-11351484D01*
X12593720Y-11551484D02*
X12593720Y-11418150D01*
X12593720Y-11437198D02*
X12603243Y-11427674D01*
X12603243Y-11427674D02*
X12622291Y-11418150D01*
X12622291Y-11418150D02*
X12650863Y-11418150D01*
X12650863Y-11418150D02*
X12669910Y-11427674D01*
X12669910Y-11427674D02*
X12679434Y-11446722D01*
X12679434Y-11446722D02*
X12679434Y-11551484D01*
X12679434Y-11446722D02*
X12688958Y-11427674D01*
X12688958Y-11427674D02*
X12708005Y-11418150D01*
X12708005Y-11418150D02*
X12736577Y-11418150D01*
X12736577Y-11418150D02*
X12755624Y-11427674D01*
X12755624Y-11427674D02*
X12765148Y-11446722D01*
X12765148Y-11446722D02*
X12765148Y-11551484D01*
X12860386Y-11551484D02*
X12860386Y-11418150D01*
X12860386Y-11437198D02*
X12869910Y-11427674D01*
X12869910Y-11427674D02*
X12888958Y-11418150D01*
X12888958Y-11418150D02*
X12917529Y-11418150D01*
X12917529Y-11418150D02*
X12936577Y-11427674D01*
X12936577Y-11427674D02*
X12946101Y-11446722D01*
X12946101Y-11446722D02*
X12946101Y-11551484D01*
X12946101Y-11446722D02*
X12955624Y-11427674D01*
X12955624Y-11427674D02*
X12974672Y-11418150D01*
X12974672Y-11418150D02*
X13003243Y-11418150D01*
X13003243Y-11418150D02*
X13022291Y-11427674D01*
X13022291Y-11427674D02*
X13031815Y-11446722D01*
X13031815Y-11446722D02*
X13031815Y-11551484D01*
X13422291Y-11341960D02*
X13250863Y-11599103D01*
X13679434Y-11351484D02*
X13698482Y-11351484D01*
X13698482Y-11351484D02*
X13717529Y-11361008D01*
X13717529Y-11361008D02*
X13727053Y-11370531D01*
X13727053Y-11370531D02*
X13736577Y-11389579D01*
X13736577Y-11389579D02*
X13746101Y-11427674D01*
X13746101Y-11427674D02*
X13746101Y-11475293D01*
X13746101Y-11475293D02*
X13736577Y-11513388D01*
X13736577Y-11513388D02*
X13727053Y-11532436D01*
X13727053Y-11532436D02*
X13717529Y-11541960D01*
X13717529Y-11541960D02*
X13698482Y-11551484D01*
X13698482Y-11551484D02*
X13679434Y-11551484D01*
X13679434Y-11551484D02*
X13660386Y-11541960D01*
X13660386Y-11541960D02*
X13650863Y-11532436D01*
X13650863Y-11532436D02*
X13641339Y-11513388D01*
X13641339Y-11513388D02*
X13631815Y-11475293D01*
X13631815Y-11475293D02*
X13631815Y-11427674D01*
X13631815Y-11427674D02*
X13641339Y-11389579D01*
X13641339Y-11389579D02*
X13650863Y-11370531D01*
X13650863Y-11370531D02*
X13660386Y-11361008D01*
X13660386Y-11361008D02*
X13679434Y-11351484D01*
X13831815Y-11532436D02*
X13841339Y-11541960D01*
X13841339Y-11541960D02*
X13831815Y-11551484D01*
X13831815Y-11551484D02*
X13822291Y-11541960D01*
X13822291Y-11541960D02*
X13831815Y-11532436D01*
X13831815Y-11532436D02*
X13831815Y-11551484D01*
X13965148Y-11351484D02*
X13984196Y-11351484D01*
X13984196Y-11351484D02*
X14003244Y-11361008D01*
X14003244Y-11361008D02*
X14012767Y-11370531D01*
X14012767Y-11370531D02*
X14022291Y-11389579D01*
X14022291Y-11389579D02*
X14031815Y-11427674D01*
X14031815Y-11427674D02*
X14031815Y-11475293D01*
X14031815Y-11475293D02*
X14022291Y-11513388D01*
X14022291Y-11513388D02*
X14012767Y-11532436D01*
X14012767Y-11532436D02*
X14003244Y-11541960D01*
X14003244Y-11541960D02*
X13984196Y-11551484D01*
X13984196Y-11551484D02*
X13965148Y-11551484D01*
X13965148Y-11551484D02*
X13946101Y-11541960D01*
X13946101Y-11541960D02*
X13936577Y-11532436D01*
X13936577Y-11532436D02*
X13927053Y-11513388D01*
X13927053Y-11513388D02*
X13917529Y-11475293D01*
X13917529Y-11475293D02*
X13917529Y-11427674D01*
X13917529Y-11427674D02*
X13927053Y-11389579D01*
X13927053Y-11389579D02*
X13936577Y-11370531D01*
X13936577Y-11370531D02*
X13946101Y-11361008D01*
X13946101Y-11361008D02*
X13965148Y-11351484D01*
X14098482Y-11351484D02*
X14222291Y-11351484D01*
X14222291Y-11351484D02*
X14155625Y-11427674D01*
X14155625Y-11427674D02*
X14184196Y-11427674D01*
X14184196Y-11427674D02*
X14203244Y-11437198D01*
X14203244Y-11437198D02*
X14212767Y-11446722D01*
X14212767Y-11446722D02*
X14222291Y-11465769D01*
X14222291Y-11465769D02*
X14222291Y-11513388D01*
X14222291Y-11513388D02*
X14212767Y-11532436D01*
X14212767Y-11532436D02*
X14203244Y-11541960D01*
X14203244Y-11541960D02*
X14184196Y-11551484D01*
X14184196Y-11551484D02*
X14127053Y-11551484D01*
X14127053Y-11551484D02*
X14108006Y-11541960D01*
X14108006Y-11541960D02*
X14098482Y-11532436D01*
X14317529Y-11551484D02*
X14355625Y-11551484D01*
X14355625Y-11551484D02*
X14374672Y-11541960D01*
X14374672Y-11541960D02*
X14384196Y-11532436D01*
X14384196Y-11532436D02*
X14403244Y-11503865D01*
X14403244Y-11503865D02*
X14412767Y-11465769D01*
X14412767Y-11465769D02*
X14412767Y-11389579D01*
X14412767Y-11389579D02*
X14403244Y-11370531D01*
X14403244Y-11370531D02*
X14393720Y-11361008D01*
X14393720Y-11361008D02*
X14374672Y-11351484D01*
X14374672Y-11351484D02*
X14336577Y-11351484D01*
X14336577Y-11351484D02*
X14317529Y-11361008D01*
X14317529Y-11361008D02*
X14308006Y-11370531D01*
X14308006Y-11370531D02*
X14298482Y-11389579D01*
X14298482Y-11389579D02*
X14298482Y-11437198D01*
X14298482Y-11437198D02*
X14308006Y-11456246D01*
X14308006Y-11456246D02*
X14317529Y-11465769D01*
X14317529Y-11465769D02*
X14336577Y-11475293D01*
X14336577Y-11475293D02*
X14374672Y-11475293D01*
X14374672Y-11475293D02*
X14393720Y-11465769D01*
X14393720Y-11465769D02*
X14403244Y-11456246D01*
X14403244Y-11456246D02*
X14412767Y-11437198D01*
X14584196Y-11418150D02*
X14584196Y-11551484D01*
X14536577Y-11341960D02*
X14488958Y-11484817D01*
X14488958Y-11484817D02*
X14612767Y-11484817D01*
X14679434Y-11351484D02*
X14679434Y-11389579D01*
X14755625Y-11351484D02*
X14755625Y-11389579D01*
X15050863Y-11627674D02*
X15041339Y-11618150D01*
X15041339Y-11618150D02*
X15022291Y-11589579D01*
X15022291Y-11589579D02*
X15012768Y-11570531D01*
X15012768Y-11570531D02*
X15003244Y-11541960D01*
X15003244Y-11541960D02*
X14993720Y-11494341D01*
X14993720Y-11494341D02*
X14993720Y-11456246D01*
X14993720Y-11456246D02*
X15003244Y-11408627D01*
X15003244Y-11408627D02*
X15012768Y-11380055D01*
X15012768Y-11380055D02*
X15022291Y-11361008D01*
X15022291Y-11361008D02*
X15041339Y-11332436D01*
X15041339Y-11332436D02*
X15050863Y-11322912D01*
X15231815Y-11551484D02*
X15117529Y-11551484D01*
X15174672Y-11551484D02*
X15174672Y-11351484D01*
X15174672Y-11351484D02*
X15155625Y-11380055D01*
X15155625Y-11380055D02*
X15136577Y-11399103D01*
X15136577Y-11399103D02*
X15117529Y-11408627D01*
X15422291Y-11551484D02*
X15308006Y-11551484D01*
X15365148Y-11551484D02*
X15365148Y-11351484D01*
X15365148Y-11351484D02*
X15346101Y-11380055D01*
X15346101Y-11380055D02*
X15327053Y-11399103D01*
X15327053Y-11399103D02*
X15308006Y-11408627D01*
X15660387Y-11551484D02*
X15660387Y-11351484D01*
X15746101Y-11551484D02*
X15746101Y-11446722D01*
X15746101Y-11446722D02*
X15736577Y-11427674D01*
X15736577Y-11427674D02*
X15717530Y-11418150D01*
X15717530Y-11418150D02*
X15688958Y-11418150D01*
X15688958Y-11418150D02*
X15669910Y-11427674D01*
X15669910Y-11427674D02*
X15660387Y-11437198D01*
X15869910Y-11551484D02*
X15850863Y-11541960D01*
X15850863Y-11541960D02*
X15841339Y-11532436D01*
X15841339Y-11532436D02*
X15831815Y-11513388D01*
X15831815Y-11513388D02*
X15831815Y-11456246D01*
X15831815Y-11456246D02*
X15841339Y-11437198D01*
X15841339Y-11437198D02*
X15850863Y-11427674D01*
X15850863Y-11427674D02*
X15869910Y-11418150D01*
X15869910Y-11418150D02*
X15898482Y-11418150D01*
X15898482Y-11418150D02*
X15917530Y-11427674D01*
X15917530Y-11427674D02*
X15927053Y-11437198D01*
X15927053Y-11437198D02*
X15936577Y-11456246D01*
X15936577Y-11456246D02*
X15936577Y-11513388D01*
X15936577Y-11513388D02*
X15927053Y-11532436D01*
X15927053Y-11532436D02*
X15917530Y-11541960D01*
X15917530Y-11541960D02*
X15898482Y-11551484D01*
X15898482Y-11551484D02*
X15869910Y-11551484D01*
X16050863Y-11551484D02*
X16031815Y-11541960D01*
X16031815Y-11541960D02*
X16022291Y-11522912D01*
X16022291Y-11522912D02*
X16022291Y-11351484D01*
X16203244Y-11541960D02*
X16184196Y-11551484D01*
X16184196Y-11551484D02*
X16146101Y-11551484D01*
X16146101Y-11551484D02*
X16127053Y-11541960D01*
X16127053Y-11541960D02*
X16117530Y-11522912D01*
X16117530Y-11522912D02*
X16117530Y-11446722D01*
X16117530Y-11446722D02*
X16127053Y-11427674D01*
X16127053Y-11427674D02*
X16146101Y-11418150D01*
X16146101Y-11418150D02*
X16184196Y-11418150D01*
X16184196Y-11418150D02*
X16203244Y-11427674D01*
X16203244Y-11427674D02*
X16212768Y-11446722D01*
X16212768Y-11446722D02*
X16212768Y-11465769D01*
X16212768Y-11465769D02*
X16117530Y-11484817D01*
X16288958Y-11541960D02*
X16308006Y-11551484D01*
X16308006Y-11551484D02*
X16346101Y-11551484D01*
X16346101Y-11551484D02*
X16365149Y-11541960D01*
X16365149Y-11541960D02*
X16374672Y-11522912D01*
X16374672Y-11522912D02*
X16374672Y-11513388D01*
X16374672Y-11513388D02*
X16365149Y-11494341D01*
X16365149Y-11494341D02*
X16346101Y-11484817D01*
X16346101Y-11484817D02*
X16317530Y-11484817D01*
X16317530Y-11484817D02*
X16298482Y-11475293D01*
X16298482Y-11475293D02*
X16288958Y-11456246D01*
X16288958Y-11456246D02*
X16288958Y-11446722D01*
X16288958Y-11446722D02*
X16298482Y-11427674D01*
X16298482Y-11427674D02*
X16317530Y-11418150D01*
X16317530Y-11418150D02*
X16346101Y-11418150D01*
X16346101Y-11418150D02*
X16365149Y-11427674D01*
X16441339Y-11627674D02*
X16450863Y-11618150D01*
X16450863Y-11618150D02*
X16469911Y-11589579D01*
X16469911Y-11589579D02*
X16479434Y-11570531D01*
X16479434Y-11570531D02*
X16488958Y-11541960D01*
X16488958Y-11541960D02*
X16498482Y-11494341D01*
X16498482Y-11494341D02*
X16498482Y-11456246D01*
X16498482Y-11456246D02*
X16488958Y-11408627D01*
X16488958Y-11408627D02*
X16479434Y-11380055D01*
X16479434Y-11380055D02*
X16469911Y-11361008D01*
X16469911Y-11361008D02*
X16450863Y-11332436D01*
X16450863Y-11332436D02*
X16441339Y-11322912D01*
D12*
X11460863Y-11760063D02*
X11460863Y-11687937D01*
X11388737Y-11687937D01*
X11388737Y-11760063D01*
X11460863Y-11760063D01*
D11*
X11841339Y-11815484D02*
X11727053Y-11815484D01*
X11784196Y-11815484D02*
X11784196Y-11615484D01*
X11784196Y-11615484D02*
X11765148Y-11644055D01*
X11765148Y-11644055D02*
X11746101Y-11663103D01*
X11746101Y-11663103D02*
X11727053Y-11672627D01*
X11927053Y-11796436D02*
X11936577Y-11805960D01*
X11936577Y-11805960D02*
X11927053Y-11815484D01*
X11927053Y-11815484D02*
X11917529Y-11805960D01*
X11917529Y-11805960D02*
X11927053Y-11796436D01*
X11927053Y-11796436D02*
X11927053Y-11815484D01*
X12060386Y-11615484D02*
X12079434Y-11615484D01*
X12079434Y-11615484D02*
X12098482Y-11625008D01*
X12098482Y-11625008D02*
X12108005Y-11634531D01*
X12108005Y-11634531D02*
X12117529Y-11653579D01*
X12117529Y-11653579D02*
X12127053Y-11691674D01*
X12127053Y-11691674D02*
X12127053Y-11739293D01*
X12127053Y-11739293D02*
X12117529Y-11777388D01*
X12117529Y-11777388D02*
X12108005Y-11796436D01*
X12108005Y-11796436D02*
X12098482Y-11805960D01*
X12098482Y-11805960D02*
X12079434Y-11815484D01*
X12079434Y-11815484D02*
X12060386Y-11815484D01*
X12060386Y-11815484D02*
X12041339Y-11805960D01*
X12041339Y-11805960D02*
X12031815Y-11796436D01*
X12031815Y-11796436D02*
X12022291Y-11777388D01*
X12022291Y-11777388D02*
X12012767Y-11739293D01*
X12012767Y-11739293D02*
X12012767Y-11691674D01*
X12012767Y-11691674D02*
X12022291Y-11653579D01*
X12022291Y-11653579D02*
X12031815Y-11634531D01*
X12031815Y-11634531D02*
X12041339Y-11625008D01*
X12041339Y-11625008D02*
X12060386Y-11615484D01*
X12203243Y-11634531D02*
X12212767Y-11625008D01*
X12212767Y-11625008D02*
X12231815Y-11615484D01*
X12231815Y-11615484D02*
X12279434Y-11615484D01*
X12279434Y-11615484D02*
X12298482Y-11625008D01*
X12298482Y-11625008D02*
X12308005Y-11634531D01*
X12308005Y-11634531D02*
X12317529Y-11653579D01*
X12317529Y-11653579D02*
X12317529Y-11672627D01*
X12317529Y-11672627D02*
X12308005Y-11701198D01*
X12308005Y-11701198D02*
X12193720Y-11815484D01*
X12193720Y-11815484D02*
X12317529Y-11815484D01*
X12441339Y-11615484D02*
X12460386Y-11615484D01*
X12460386Y-11615484D02*
X12479434Y-11625008D01*
X12479434Y-11625008D02*
X12488958Y-11634531D01*
X12488958Y-11634531D02*
X12498482Y-11653579D01*
X12498482Y-11653579D02*
X12508005Y-11691674D01*
X12508005Y-11691674D02*
X12508005Y-11739293D01*
X12508005Y-11739293D02*
X12498482Y-11777388D01*
X12498482Y-11777388D02*
X12488958Y-11796436D01*
X12488958Y-11796436D02*
X12479434Y-11805960D01*
X12479434Y-11805960D02*
X12460386Y-11815484D01*
X12460386Y-11815484D02*
X12441339Y-11815484D01*
X12441339Y-11815484D02*
X12422291Y-11805960D01*
X12422291Y-11805960D02*
X12412767Y-11796436D01*
X12412767Y-11796436D02*
X12403243Y-11777388D01*
X12403243Y-11777388D02*
X12393720Y-11739293D01*
X12393720Y-11739293D02*
X12393720Y-11691674D01*
X12393720Y-11691674D02*
X12403243Y-11653579D01*
X12403243Y-11653579D02*
X12412767Y-11634531D01*
X12412767Y-11634531D02*
X12422291Y-11625008D01*
X12422291Y-11625008D02*
X12441339Y-11615484D01*
X12593720Y-11815484D02*
X12593720Y-11682150D01*
X12593720Y-11701198D02*
X12603243Y-11691674D01*
X12603243Y-11691674D02*
X12622291Y-11682150D01*
X12622291Y-11682150D02*
X12650863Y-11682150D01*
X12650863Y-11682150D02*
X12669910Y-11691674D01*
X12669910Y-11691674D02*
X12679434Y-11710722D01*
X12679434Y-11710722D02*
X12679434Y-11815484D01*
X12679434Y-11710722D02*
X12688958Y-11691674D01*
X12688958Y-11691674D02*
X12708005Y-11682150D01*
X12708005Y-11682150D02*
X12736577Y-11682150D01*
X12736577Y-11682150D02*
X12755624Y-11691674D01*
X12755624Y-11691674D02*
X12765148Y-11710722D01*
X12765148Y-11710722D02*
X12765148Y-11815484D01*
X12860386Y-11815484D02*
X12860386Y-11682150D01*
X12860386Y-11701198D02*
X12869910Y-11691674D01*
X12869910Y-11691674D02*
X12888958Y-11682150D01*
X12888958Y-11682150D02*
X12917529Y-11682150D01*
X12917529Y-11682150D02*
X12936577Y-11691674D01*
X12936577Y-11691674D02*
X12946101Y-11710722D01*
X12946101Y-11710722D02*
X12946101Y-11815484D01*
X12946101Y-11710722D02*
X12955624Y-11691674D01*
X12955624Y-11691674D02*
X12974672Y-11682150D01*
X12974672Y-11682150D02*
X13003243Y-11682150D01*
X13003243Y-11682150D02*
X13022291Y-11691674D01*
X13022291Y-11691674D02*
X13031815Y-11710722D01*
X13031815Y-11710722D02*
X13031815Y-11815484D01*
X13422291Y-11605960D02*
X13250863Y-11863103D01*
X13679434Y-11615484D02*
X13698482Y-11615484D01*
X13698482Y-11615484D02*
X13717529Y-11625008D01*
X13717529Y-11625008D02*
X13727053Y-11634531D01*
X13727053Y-11634531D02*
X13736577Y-11653579D01*
X13736577Y-11653579D02*
X13746101Y-11691674D01*
X13746101Y-11691674D02*
X13746101Y-11739293D01*
X13746101Y-11739293D02*
X13736577Y-11777388D01*
X13736577Y-11777388D02*
X13727053Y-11796436D01*
X13727053Y-11796436D02*
X13717529Y-11805960D01*
X13717529Y-11805960D02*
X13698482Y-11815484D01*
X13698482Y-11815484D02*
X13679434Y-11815484D01*
X13679434Y-11815484D02*
X13660386Y-11805960D01*
X13660386Y-11805960D02*
X13650863Y-11796436D01*
X13650863Y-11796436D02*
X13641339Y-11777388D01*
X13641339Y-11777388D02*
X13631815Y-11739293D01*
X13631815Y-11739293D02*
X13631815Y-11691674D01*
X13631815Y-11691674D02*
X13641339Y-11653579D01*
X13641339Y-11653579D02*
X13650863Y-11634531D01*
X13650863Y-11634531D02*
X13660386Y-11625008D01*
X13660386Y-11625008D02*
X13679434Y-11615484D01*
X13831815Y-11796436D02*
X13841339Y-11805960D01*
X13841339Y-11805960D02*
X13831815Y-11815484D01*
X13831815Y-11815484D02*
X13822291Y-11805960D01*
X13822291Y-11805960D02*
X13831815Y-11796436D01*
X13831815Y-11796436D02*
X13831815Y-11815484D01*
X13965148Y-11615484D02*
X13984196Y-11615484D01*
X13984196Y-11615484D02*
X14003244Y-11625008D01*
X14003244Y-11625008D02*
X14012767Y-11634531D01*
X14012767Y-11634531D02*
X14022291Y-11653579D01*
X14022291Y-11653579D02*
X14031815Y-11691674D01*
X14031815Y-11691674D02*
X14031815Y-11739293D01*
X14031815Y-11739293D02*
X14022291Y-11777388D01*
X14022291Y-11777388D02*
X14012767Y-11796436D01*
X14012767Y-11796436D02*
X14003244Y-11805960D01*
X14003244Y-11805960D02*
X13984196Y-11815484D01*
X13984196Y-11815484D02*
X13965148Y-11815484D01*
X13965148Y-11815484D02*
X13946101Y-11805960D01*
X13946101Y-11805960D02*
X13936577Y-11796436D01*
X13936577Y-11796436D02*
X13927053Y-11777388D01*
X13927053Y-11777388D02*
X13917529Y-11739293D01*
X13917529Y-11739293D02*
X13917529Y-11691674D01*
X13917529Y-11691674D02*
X13927053Y-11653579D01*
X13927053Y-11653579D02*
X13936577Y-11634531D01*
X13936577Y-11634531D02*
X13946101Y-11625008D01*
X13946101Y-11625008D02*
X13965148Y-11615484D01*
X14203244Y-11682150D02*
X14203244Y-11815484D01*
X14155625Y-11605960D02*
X14108006Y-11748817D01*
X14108006Y-11748817D02*
X14231815Y-11748817D01*
X14346101Y-11615484D02*
X14365148Y-11615484D01*
X14365148Y-11615484D02*
X14384196Y-11625008D01*
X14384196Y-11625008D02*
X14393720Y-11634531D01*
X14393720Y-11634531D02*
X14403244Y-11653579D01*
X14403244Y-11653579D02*
X14412767Y-11691674D01*
X14412767Y-11691674D02*
X14412767Y-11739293D01*
X14412767Y-11739293D02*
X14403244Y-11777388D01*
X14403244Y-11777388D02*
X14393720Y-11796436D01*
X14393720Y-11796436D02*
X14384196Y-11805960D01*
X14384196Y-11805960D02*
X14365148Y-11815484D01*
X14365148Y-11815484D02*
X14346101Y-11815484D01*
X14346101Y-11815484D02*
X14327053Y-11805960D01*
X14327053Y-11805960D02*
X14317529Y-11796436D01*
X14317529Y-11796436D02*
X14308006Y-11777388D01*
X14308006Y-11777388D02*
X14298482Y-11739293D01*
X14298482Y-11739293D02*
X14298482Y-11691674D01*
X14298482Y-11691674D02*
X14308006Y-11653579D01*
X14308006Y-11653579D02*
X14317529Y-11634531D01*
X14317529Y-11634531D02*
X14327053Y-11625008D01*
X14327053Y-11625008D02*
X14346101Y-11615484D01*
X14488958Y-11634531D02*
X14498482Y-11625008D01*
X14498482Y-11625008D02*
X14517529Y-11615484D01*
X14517529Y-11615484D02*
X14565148Y-11615484D01*
X14565148Y-11615484D02*
X14584196Y-11625008D01*
X14584196Y-11625008D02*
X14593720Y-11634531D01*
X14593720Y-11634531D02*
X14603244Y-11653579D01*
X14603244Y-11653579D02*
X14603244Y-11672627D01*
X14603244Y-11672627D02*
X14593720Y-11701198D01*
X14593720Y-11701198D02*
X14479434Y-11815484D01*
X14479434Y-11815484D02*
X14603244Y-11815484D01*
X14679434Y-11615484D02*
X14679434Y-11653579D01*
X14755625Y-11615484D02*
X14755625Y-11653579D01*
X15050863Y-11891674D02*
X15041339Y-11882150D01*
X15041339Y-11882150D02*
X15022291Y-11853579D01*
X15022291Y-11853579D02*
X15012768Y-11834531D01*
X15012768Y-11834531D02*
X15003244Y-11805960D01*
X15003244Y-11805960D02*
X14993720Y-11758341D01*
X14993720Y-11758341D02*
X14993720Y-11720246D01*
X14993720Y-11720246D02*
X15003244Y-11672627D01*
X15003244Y-11672627D02*
X15012768Y-11644055D01*
X15012768Y-11644055D02*
X15022291Y-11625008D01*
X15022291Y-11625008D02*
X15041339Y-11596436D01*
X15041339Y-11596436D02*
X15050863Y-11586912D01*
X15212768Y-11682150D02*
X15212768Y-11815484D01*
X15165148Y-11605960D02*
X15117529Y-11748817D01*
X15117529Y-11748817D02*
X15241339Y-11748817D01*
X15298482Y-11615484D02*
X15422291Y-11615484D01*
X15422291Y-11615484D02*
X15355625Y-11691674D01*
X15355625Y-11691674D02*
X15384196Y-11691674D01*
X15384196Y-11691674D02*
X15403244Y-11701198D01*
X15403244Y-11701198D02*
X15412768Y-11710722D01*
X15412768Y-11710722D02*
X15422291Y-11729769D01*
X15422291Y-11729769D02*
X15422291Y-11777388D01*
X15422291Y-11777388D02*
X15412768Y-11796436D01*
X15412768Y-11796436D02*
X15403244Y-11805960D01*
X15403244Y-11805960D02*
X15384196Y-11815484D01*
X15384196Y-11815484D02*
X15327053Y-11815484D01*
X15327053Y-11815484D02*
X15308006Y-11805960D01*
X15308006Y-11805960D02*
X15298482Y-11796436D01*
X15660387Y-11815484D02*
X15660387Y-11615484D01*
X15746101Y-11815484D02*
X15746101Y-11710722D01*
X15746101Y-11710722D02*
X15736577Y-11691674D01*
X15736577Y-11691674D02*
X15717530Y-11682150D01*
X15717530Y-11682150D02*
X15688958Y-11682150D01*
X15688958Y-11682150D02*
X15669910Y-11691674D01*
X15669910Y-11691674D02*
X15660387Y-11701198D01*
X15869910Y-11815484D02*
X15850863Y-11805960D01*
X15850863Y-11805960D02*
X15841339Y-11796436D01*
X15841339Y-11796436D02*
X15831815Y-11777388D01*
X15831815Y-11777388D02*
X15831815Y-11720246D01*
X15831815Y-11720246D02*
X15841339Y-11701198D01*
X15841339Y-11701198D02*
X15850863Y-11691674D01*
X15850863Y-11691674D02*
X15869910Y-11682150D01*
X15869910Y-11682150D02*
X15898482Y-11682150D01*
X15898482Y-11682150D02*
X15917530Y-11691674D01*
X15917530Y-11691674D02*
X15927053Y-11701198D01*
X15927053Y-11701198D02*
X15936577Y-11720246D01*
X15936577Y-11720246D02*
X15936577Y-11777388D01*
X15936577Y-11777388D02*
X15927053Y-11796436D01*
X15927053Y-11796436D02*
X15917530Y-11805960D01*
X15917530Y-11805960D02*
X15898482Y-11815484D01*
X15898482Y-11815484D02*
X15869910Y-11815484D01*
X16050863Y-11815484D02*
X16031815Y-11805960D01*
X16031815Y-11805960D02*
X16022291Y-11786912D01*
X16022291Y-11786912D02*
X16022291Y-11615484D01*
X16203244Y-11805960D02*
X16184196Y-11815484D01*
X16184196Y-11815484D02*
X16146101Y-11815484D01*
X16146101Y-11815484D02*
X16127053Y-11805960D01*
X16127053Y-11805960D02*
X16117530Y-11786912D01*
X16117530Y-11786912D02*
X16117530Y-11710722D01*
X16117530Y-11710722D02*
X16127053Y-11691674D01*
X16127053Y-11691674D02*
X16146101Y-11682150D01*
X16146101Y-11682150D02*
X16184196Y-11682150D01*
X16184196Y-11682150D02*
X16203244Y-11691674D01*
X16203244Y-11691674D02*
X16212768Y-11710722D01*
X16212768Y-11710722D02*
X16212768Y-11729769D01*
X16212768Y-11729769D02*
X16117530Y-11748817D01*
X16288958Y-11805960D02*
X16308006Y-11815484D01*
X16308006Y-11815484D02*
X16346101Y-11815484D01*
X16346101Y-11815484D02*
X16365149Y-11805960D01*
X16365149Y-11805960D02*
X16374672Y-11786912D01*
X16374672Y-11786912D02*
X16374672Y-11777388D01*
X16374672Y-11777388D02*
X16365149Y-11758341D01*
X16365149Y-11758341D02*
X16346101Y-11748817D01*
X16346101Y-11748817D02*
X16317530Y-11748817D01*
X16317530Y-11748817D02*
X16298482Y-11739293D01*
X16298482Y-11739293D02*
X16288958Y-11720246D01*
X16288958Y-11720246D02*
X16288958Y-11710722D01*
X16288958Y-11710722D02*
X16298482Y-11691674D01*
X16298482Y-11691674D02*
X16317530Y-11682150D01*
X16317530Y-11682150D02*
X16346101Y-11682150D01*
X16346101Y-11682150D02*
X16365149Y-11691674D01*
X16441339Y-11891674D02*
X16450863Y-11882150D01*
X16450863Y-11882150D02*
X16469911Y-11853579D01*
X16469911Y-11853579D02*
X16479434Y-11834531D01*
X16479434Y-11834531D02*
X16488958Y-11805960D01*
X16488958Y-11805960D02*
X16498482Y-11758341D01*
X16498482Y-11758341D02*
X16498482Y-11720246D01*
X16498482Y-11720246D02*
X16488958Y-11672627D01*
X16488958Y-11672627D02*
X16479434Y-11644055D01*
X16479434Y-11644055D02*
X16469911Y-11625008D01*
X16469911Y-11625008D02*
X16450863Y-11596436D01*
X16450863Y-11596436D02*
X16441339Y-11586912D01*
M02*
