M48
; DRILL file {KiCad 8.0.2-8.0.2-0~ubuntu22.04.1} date 2024-05-30T19:53:59+0200
; FORMAT={-:-/ absolute / metric / decimal}
; #@! TF.CreationDate,2024-05-30T19:53:59+02:00
; #@! TF.GenerationSoftware,Kicad,Pcbnew,8.0.2-8.0.2-0~ubuntu22.04.1
; #@! TF.FileFunction,Plated,1,2,PTH
FMAT,2
METRIC
; #@! TA.AperFunction,Plated,PTH,ViaDrill
T1C0.400
; #@! TA.AperFunction,Plated,PTH,ComponentDrill
T2C0.600
; #@! TA.AperFunction,Plated,PTH,ComponentDrill
T3C1.000
; #@! TA.AperFunction,Plated,PTH,ComponentDrill
T4C1.020
%
G90
G05
T1
X120.142Y-55.626
X120.65Y-92.71
X122.174Y-100.584
X122.301Y-51.689
X123.038Y-98.925
X127.0Y-69.342
X127.0Y-72.771
X127.0Y-78.359
X127.0Y-81.788
X127.254Y-97.79
X128.524Y-87.884
X128.651Y-76.962
X129.286Y-79.502
X129.286Y-82.804
X129.54Y-94.996
X130.556Y-67.437
X130.683Y-71.181
X130.683Y-75.565
X130.933Y-76.839
X132.842Y-97.79
X132.842Y-100.838
X133.858Y-82.804
X134.239Y-78.994
X139.192Y-74.295
X139.192Y-84.709
X140.462Y-82.804
X141.224Y-73.787
X141.224Y-86.36
X141.478Y-72.263
X141.478Y-91.948
X141.834Y-93.828
X141.986Y-88.646
X143.51Y-99.06
X144.78Y-67.564
X144.78Y-69.85
X144.78Y-101.092
X145.024Y-87.63
X145.525Y-56.878
X145.525Y-97.053
X146.575Y-56.878
X146.575Y-97.053
X146.595Y-78.74
X147.066Y-81.305
X147.174Y-92.358
X147.32Y-68.58
X147.32Y-71.12
X147.32Y-73.66
X147.574Y-54.61
X148.024Y-90.678
X148.187Y-76.095
X148.5Y-93.79
X148.59Y-91.948
X149.352Y-70.358
X149.352Y-73.66
X149.352Y-75.311
X149.606Y-89.408
X149.86Y-86.36
X150.115Y-81.984
X151.384Y-67.818
X151.384Y-70.358
X151.892Y-59.944
T3
X140.97Y-76.19
X140.97Y-78.73
X143.51Y-66.04
X143.51Y-68.58
X143.51Y-71.12
X143.51Y-73.66
X143.51Y-76.2
X143.51Y-78.74
X143.51Y-81.28
X143.51Y-83.82
X143.51Y-86.36
T4
X118.11Y-52.07
X118.11Y-54.61
X118.11Y-57.15
X118.11Y-59.69
X118.11Y-62.23
X118.11Y-64.77
X118.11Y-67.31
X118.11Y-69.85
X118.11Y-72.39
X118.11Y-74.93
X118.11Y-77.47
X118.11Y-80.01
X118.11Y-82.55
X118.11Y-85.09
X118.11Y-87.63
X118.11Y-90.17
X118.11Y-92.71
X118.11Y-95.25
X118.11Y-97.79
X118.11Y-100.33
X124.46Y-100.1
X127.0Y-100.1
X129.54Y-100.1
X135.89Y-52.07
X135.89Y-54.61
X135.89Y-57.15
X135.89Y-59.69
X135.89Y-62.23
X135.89Y-64.77
X135.89Y-67.31
X135.89Y-69.85
X135.89Y-72.39
X135.89Y-74.93
X135.89Y-77.47
X135.89Y-80.01
X135.89Y-82.55
X135.89Y-85.09
X135.89Y-87.63
X135.89Y-90.17
X135.89Y-92.71
X135.89Y-95.25
X135.89Y-97.79
X135.89Y-100.33
T2
X141.73Y-53.625G85X141.73Y-53.025
G05
X141.73Y-58.055G85X141.73Y-56.955
G05
X141.73Y-95.38G85X141.73Y-96.48
G05
X141.73Y-99.81G85X141.73Y-100.41
G05
X150.37Y-53.625G85X150.37Y-53.025
G05
X150.37Y-58.055G85X150.37Y-56.955
G05
X150.37Y-95.38G85X150.37Y-96.48
G05
X150.37Y-99.81G85X150.37Y-100.41
G05
M30
